<svg width="250" height="213" viewBox="0 0 111 213" fill="none" xmlns="http://www.w3.org/2000/svg">
<g clip-path="url(#clip0_20_26)">
<path d="M87.4359 57.6932L88.7181 8.40214L90.1099 5.56527C91.3378 4.31279 93.3273 4.5445 94.6532 5.63416C95.9799 6.72381 96.7584 8.48978 97.2896 10.2558C99.8549 18.735 97.8378 28.0535 98.3859 37.0024C98.5007 38.9437 98.7694 40.9602 99.7561 42.5446C101.099 44.6988 103.592 45.7571 104.612 48.1243C105.048 49.2116 105.135 50.44 104.858 51.5933C104.58 52.7467 103.955 53.7513 103.094 54.4306C104.348 55.2697 105.648 56.1465 106.486 57.5053C107.325 58.8643 107.549 60.862 106.628 62.1458C105.625 63.536 103.8 63.5548 102.244 63.3983C97.8018 62.9593 93.4131 61.9725 89.1568 60.4549C88.6072 60.3228 88.1103 59.9884 87.7429 59.5031C87.4757 58.952 87.3678 58.3184 87.4359 57.6932Z" fill="#263238"/>
<path d="M96.5886 49.2078C96.1338 49.006 95.7258 48.6891 95.3936 48.281C94.7467 47.492 94.2591 45.9639 94.1167 44.0414C93.8113 38.9928 93.8319 33.9254 94.1772 28.8802C94.38 25.9243 94.687 23.1188 95.0376 20.5826C95.3882 18.0463 95.5857 15.6603 95.1088 13.744C94.7766 12.2166 93.985 10.8712 92.8727 9.94278C92.5665 9.70834 92.2351 9.52097 91.886 9.38539C91.7627 9.34124 91.6364 9.3077 91.5078 9.28525C92.3751 9.62679 93.1483 10.2253 93.7469 11.0196C94.3456 11.814 94.7498 12.7757 94.9167 13.8067C95.3553 15.6854 95.1578 18.0087 94.7796 20.5325C94.4015 23.0562 94.0945 25.8867 93.8978 28.8551C93.5395 33.9173 93.5395 39.0043 93.8978 44.0665C94.0731 46.014 94.599 47.5734 95.2948 48.3686C95.5551 48.6733 95.8636 48.9178 96.205 49.0889C96.3275 49.1475 96.4569 49.1875 96.5886 49.2078Z" fill="#455A64"/>
<path d="M86.7796 8.18305C86.4833 7.60065 86.9059 8.87195 86.7796 8.18305V8.18305Z" fill="#0046B3"/>
<path d="M87.2622 5.42127C87.7552 4.82634 88.5276 5.07683 89.0979 5.54651C90.113 6.47437 90.8739 7.71533 91.2904 9.12235C91.7527 10.6271 92.0475 12.1925 92.1669 13.7815C92.2549 14.7021 92.2549 15.8106 91.7344 16.3428C91.5484 16.5131 91.3172 16.6059 91.0791 16.6059C90.841 16.6059 90.6098 16.5131 90.4238 16.3428C90.0166 15.9628 89.6813 15.4919 89.4378 14.9588C88.3271 12.8304 87.4299 10.5659 86.7631 8.20801C86.6536 7.48786 86.8779 5.87842 87.2622 5.42127Z" fill="#0046B3"/>
<path d="M91.321 17.7456C90.2248 12.4038 88.2521 6.94299 84.377 3.69285C80.9246 0.80589 75.888 -0.296292 71.6187 0.066925C69.5141 0.242272 67.1685 1.44465 65.3709 2.69712C62.8992 4.41927 61.9291 7.75712 60.8001 10.7944C58.5421 16.8877 59.0847 25.0037 60.8001 27.2018L83.1277 39.6326C86.9645 37.1778 91.0853 33.8712 91.9733 28.9865C92.5765 25.6299 92.0062 21.0647 91.321 17.7456Z" fill="#263238"/>
<path d="M82.8664 8.26434L68.9184 4.11866C64.4518 3.54879 61.4375 9.81741 61.1251 14.9463C60.7743 20.645 60.5441 27.6151 61.1251 31.8547C62.2596 40.4154 67.9977 42.4506 67.9977 42.4506C67.9977 42.4506 67.9977 49.8841 68.036 52.4266L74.5414 75.0714L83.7927 52.4266L85.2066 11.3517C85.2272 10.5953 84.9976 9.85764 84.5643 9.28559C84.131 8.71353 83.5247 8.34893 82.8664 8.26434Z" fill="#FFBE9D"/>
<path d="M63.6339 21.8475C63.6308 22.1335 63.7251 22.4097 63.8969 22.6177C64.0687 22.8257 64.3045 22.9492 64.5546 22.9622C64.6769 22.9741 64.8001 22.958 64.9168 22.9148C65.0335 22.8716 65.1415 22.8022 65.2345 22.7106C65.3274 22.619 65.4034 22.5071 65.4579 22.3814C65.5124 22.2558 65.5444 22.119 65.5521 21.979C65.5552 21.693 65.4608 21.4168 65.2891 21.2088C65.1172 21.0009 64.8814 20.8772 64.6313 20.8643C64.5092 20.8532 64.3864 20.8699 64.2699 20.9134C64.1535 20.957 64.0457 21.0265 63.9529 21.118C63.8602 21.2094 63.7842 21.321 63.7295 21.4462C63.6747 21.5714 63.6422 21.7078 63.6339 21.8475Z" fill="#263238"/>
<path d="M62.4232 18.5849C62.5437 18.729 63.2727 18.1215 64.3085 18.1278C65.3443 18.134 66.0951 18.754 66.2048 18.5975C66.3143 18.4409 66.1444 18.2718 65.8156 17.9712C65.3689 17.614 64.8372 17.4217 64.292 17.4202C63.7563 17.4167 63.2331 17.605 62.7958 17.9587C62.478 18.2405 62.3684 18.5223 62.4232 18.5849Z" fill="#263238"/>
<path d="M72.9889 21.8474C72.9843 22.1329 73.0774 22.4091 73.2484 22.6172C73.4193 22.8254 73.6546 22.9492 73.9042 22.9621C74.0266 22.975 74.15 22.9595 74.2671 22.9166C74.3842 22.8738 74.4925 22.8044 74.5856 22.7126C74.6787 22.6209 74.7547 22.5086 74.809 22.3826C74.8632 22.2565 74.8948 22.1193 74.9016 21.979C74.9047 21.693 74.8104 21.4168 74.6385 21.2088C74.4668 21.0008 74.2309 20.8772 73.9809 20.8643C73.859 20.8532 73.7365 20.8699 73.6203 20.9136C73.5042 20.9572 73.3969 21.0268 73.3046 21.1183C73.2122 21.2098 73.1368 21.3214 73.0826 21.4466C73.0284 21.5718 72.9965 21.7081 72.9889 21.8474Z" fill="#263238"/>
<path d="M72.5779 18.8666C72.6929 19.0106 73.4274 18.3969 74.4577 18.4094C75.488 18.422 76.2443 19.0356 76.3594 18.8729C76.4745 18.7101 76.2936 18.5535 75.9648 18.2779C75.5221 17.9163 74.9908 17.7235 74.4467 17.7268C73.9088 17.7195 73.3828 17.9082 72.9451 18.2654C72.6272 18.5597 72.5175 18.8165 72.5779 18.8666Z" fill="#263238"/>
<path d="M68.7747 27.6339C68.242 27.4359 67.6895 27.3159 67.1305 27.277C66.8619 27.2395 66.6153 27.1768 66.5824 26.9701C66.562 26.6596 66.6251 26.3493 66.7633 26.0809C67.0153 25.3544 67.2785 24.5905 67.5579 23.7951C68.654 20.5325 69.4597 17.8522 69.3446 17.8021C69.2295 17.752 68.2485 20.3571 67.1524 23.6135C66.8838 24.4151 66.6043 25.1854 66.3906 25.918C66.2215 26.2807 66.171 26.7003 66.2481 27.1017C66.2839 27.2082 66.3413 27.3035 66.4156 27.3797C66.4899 27.456 66.579 27.5109 66.6756 27.54C66.8214 27.5895 66.9728 27.6148 67.125 27.6152C67.672 27.7006 68.2262 27.7068 68.7747 27.6339Z" fill="#263238"/>
<path d="M67.9644 42.5322L68.0082 44.6614C75.4946 45.5193 78.0099 39.5576 78.0099 39.5576C74.9673 41.5932 71.4894 42.623 67.9644 42.5322Z" fill="#EB996E"/>
<path d="M72.1737 29.8382C72.0268 29.5742 71.8246 29.3563 71.5853 29.2043C71.346 29.0523 71.0773 28.971 70.8036 28.9677C70.4188 28.931 70.0326 29.0134 69.6854 29.2062C69.3382 29.3991 69.0429 29.6952 68.8305 30.0636C68.6748 30.4053 68.6414 30.8028 68.7374 31.172C68.8086 31.3599 68.7374 31.266 68.8799 31.3975C69.3048 31.9043 69.8315 32.2848 70.4145 32.506C70.7296 32.5946 71.0606 32.5747 71.3659 32.4488C71.6711 32.3229 71.9369 32.0965 72.1298 31.7983C72.2944 31.5079 72.3856 31.1712 72.3933 30.8253C72.4011 30.4794 72.3251 30.1379 72.1737 29.8382Z" fill="#EB996E"/>
<path d="M71.8108 28.448C71.6409 28.448 71.6354 29.7005 70.6654 30.6211C69.6953 31.5416 68.5115 31.3725 68.4731 31.5479C68.4731 31.6293 68.7363 31.7984 69.2404 31.8172C69.8974 31.8388 70.5393 31.5899 71.049 31.1158C71.5429 30.6652 71.8619 30.0106 71.9369 29.2935C72.0081 28.7612 71.8875 28.4418 71.8108 28.448Z" fill="#263238"/>
<path d="M72.1127 15.1091C72.2169 15.4285 73.2472 15.2845 74.4584 15.4598C75.6696 15.6351 76.6505 16.0234 76.8098 15.7354C76.881 15.5975 76.711 15.297 76.3217 14.9838C75.7966 14.5977 75.2013 14.3536 74.5812 14.2701C73.961 14.1865 73.3323 14.2657 72.743 14.5016C72.299 14.6958 72.0689 14.9463 72.1127 15.1091Z" fill="#263238"/>
<path d="M62.8227 14.4829C63.0035 14.7522 63.716 14.4829 64.5764 14.4829C65.4369 14.4829 66.1548 14.6771 66.3193 14.4015C66.396 14.2637 66.2809 13.9944 65.9685 13.7377C65.5452 13.43 65.0516 13.2727 64.55 13.2861C64.0484 13.2995 63.5617 13.4828 63.1515 13.8128C62.8446 14.1009 62.746 14.3764 62.8227 14.4829Z" fill="#263238"/>
<path d="M83.1898 21.7411C83.2939 21.691 87.3603 20.213 87.322 24.9913C87.2838 29.7694 83.0964 28.7486 83.091 28.5983C83.0857 28.4481 83.1898 21.7411 83.1898 21.7411Z" fill="#FFBE9D"/>
<path d="M84.3784 26.801C84.3784 26.801 84.455 26.8636 84.5759 26.9262C84.7513 27.009 84.948 27.009 85.1233 26.9262C85.395 26.7341 85.6171 26.4629 85.7663 26.1404C85.9156 25.818 85.9868 25.4559 85.973 25.0913C85.9845 24.681 85.9171 24.2727 85.7755 23.8952C85.7357 23.7479 85.6653 23.6139 85.5696 23.5049C85.4739 23.3958 85.3568 23.3148 85.2282 23.269C85.1447 23.2447 85.0567 23.2538 84.9786 23.2948C84.9013 23.3359 84.8378 23.4064 84.8002 23.4944C84.7398 23.626 84.7673 23.7262 84.7459 23.7325C84.7237 23.7387 84.6579 23.651 84.6908 23.4506C84.713 23.3332 84.7712 23.2287 84.8554 23.1563C84.971 23.0569 85.1172 23.0141 85.2603 23.0373C85.4326 23.0787 85.5918 23.1694 85.7242 23.3009C85.8567 23.4324 85.9577 23.6003 86.0166 23.7888C86.1904 24.2048 86.2731 24.6624 86.2578 25.1226C86.2249 26.0808 85.787 27.0014 85.1623 27.1705C85.0498 27.2071 84.9319 27.2143 84.8171 27.1915C84.7023 27.1688 84.5935 27.1166 84.4986 27.039C84.3892 26.92 84.3677 26.8135 84.3784 26.801Z" fill="#EB996E"/>
<path d="M85.7594 28.3916C85.7594 28.3916 85.9408 28.5983 85.9186 29.0178C85.914 29.1462 85.8849 29.272 85.8336 29.3866C85.7831 29.5011 85.7104 29.6017 85.6223 29.6816C85.5014 29.7601 85.3667 29.807 85.2281 29.8189C85.0895 29.8309 84.9502 29.8076 84.8201 29.7507C84.6899 29.6938 84.5728 29.6048 84.4764 29.49C84.3807 29.3752 84.3072 29.2375 84.2635 29.0867C84.2199 28.8346 84.2613 28.5732 84.3784 28.354C84.5866 27.9845 84.8499 27.9532 84.8499 27.9783C84.8499 28.0033 84.6524 28.1035 84.51 28.4354C84.4243 28.6292 84.4052 28.8524 84.4549 29.0616C84.4894 29.1766 84.5476 29.2807 84.6233 29.3655C84.6999 29.4504 84.7925 29.5136 84.8936 29.5501C84.99 29.6033 85.0964 29.631 85.2036 29.631C85.3108 29.631 85.4164 29.6033 85.5129 29.5501C85.5833 29.4891 85.6415 29.4129 85.6859 29.3258C85.7303 29.2388 85.7586 29.1427 85.7709 29.0428C85.7908 28.8261 85.7869 28.6073 85.7594 28.3916Z" fill="#E0E0E0"/>
<path d="M60.7908 16.2991C61.4234 14.9472 62.4077 13.8531 63.6078 13.1679C64.7697 12.4101 66.0247 11.859 67.1811 11.0951C69.8543 9.30438 71.8533 6.44695 72.7931 3.07296C71.7476 2.49916 70.6002 2.20909 69.4404 2.22538C68.2806 2.24168 67.1398 2.56389 66.1069 3.16689C64.0387 4.41009 62.4061 6.42592 61.4814 8.87818C60.5707 11.3179 60.1351 13.9547 60.2044 16.606" fill="#263238"/>
<path d="M84.1494 6.96807C81.0636 3.61769 75.2214 1.76402 71.1987 3.33588C71.7961 7.35634 74.4487 11.8652 76.7836 14.9526C79.1184 18.0399 80.5537 23.4882 85.662 21.6408C86.0126 21.5093 86.4184 21.8787 86.7583 21.6408C87.0086 21.4225 87.1831 21.1096 87.2512 20.7578C87.8904 18.3553 87.9394 15.798 87.3929 13.3658C86.8455 10.9337 85.7233 8.72035 84.1494 6.96807Z" fill="#263238"/>
<path d="M85.9065 6.21035C85.9065 6.21035 85.9065 6.26672 85.8184 6.37318C85.7312 6.47964 85.6653 6.62367 85.5283 6.79903C85.1532 7.30996 84.7283 7.77011 84.2621 8.17048C83.5678 8.76593 82.7969 9.23494 81.9771 9.56073C80.9712 9.96671 79.9071 10.1454 78.8415 10.0867C77.7774 10.0079 76.7356 9.69752 75.7728 9.17246C74.9899 8.74287 74.2691 8.179 73.6354 7.50037C73.2108 7.04482 72.8322 6.53649 72.5064 5.9849C72.3858 5.79077 72.3201 5.62795 72.2597 5.5215C72.23 5.46651 72.206 5.40765 72.1885 5.34615C72.6406 6.08391 73.1585 6.76596 73.734 7.38143C74.3644 8.03463 75.0776 8.57511 75.8495 8.98461C77.7483 10.0211 79.9293 10.1585 81.9166 9.36659C82.725 9.05676 83.4882 8.60919 84.1802 8.03896C84.8087 7.49882 85.3874 6.88599 85.9065 6.21035Z" fill="white"/>
<path d="M87.9127 12.7107C87.8691 12.769 87.8208 12.8235 87.7703 12.8735C87.6317 13.0241 87.4855 13.1643 87.3317 13.2931C86.7682 13.7787 86.1382 14.1552 85.4684 14.4078C84.474 14.7921 83.4245 14.9537 82.3772 14.8838C81.0927 14.8108 79.8349 14.4423 78.6775 13.8004C77.5353 13.1363 76.4903 12.2721 75.5814 11.239C74.843 10.399 74.1785 9.47816 73.5974 8.48984C73.1987 7.8292 72.8327 7.14341 72.5013 6.4358C72.3807 6.18531 72.2985 5.98491 72.2437 5.85341C72.2081 5.78775 72.1821 5.7158 72.167 5.64049C72.2092 5.69861 72.2458 5.76156 72.2766 5.82835L72.5671 6.39197C72.8137 6.88044 73.1864 7.57556 73.696 8.40221C74.2904 9.36503 74.9599 10.2642 75.6965 11.0888C76.5983 12.0968 77.6295 12.9415 78.7548 13.5937C79.8878 14.2239 81.1187 14.5921 82.3772 14.677C83.4038 14.7482 84.4326 14.6039 85.4133 14.2513C86.0762 14.0155 86.7047 13.6672 87.2765 13.218C87.693 12.8985 87.8958 12.6919 87.9127 12.7107Z" fill="#455A64"/>
<path d="M84.248 38.831C84.248 38.831 84.33 38.831 84.467 38.7183C84.604 38.6056 84.8176 38.5054 85.0756 38.3175C85.8059 37.8089 86.501 37.2352 87.1524 36.6016C88.1292 35.6632 88.9958 34.5832 89.7284 33.389C90.6194 31.9161 91.2946 30.2876 91.7287 28.567C92.5149 25.4354 92.5845 22.1256 91.9315 18.9543C91.7325 17.9996 91.4653 17.0654 91.1316 16.1612C91.016 15.8419 90.9065 15.6039 90.8353 15.4411C90.8055 15.3556 90.7649 15.2754 90.7144 15.2031C90.7993 15.5468 90.9035 15.8836 91.0275 16.2113C91.3184 17.1227 91.5549 18.0559 91.734 19.0043C92.3204 22.1391 92.2247 25.3906 91.4546 28.4731C91.0305 30.1622 90.376 31.7642 89.5148 33.22C88.7998 34.4 87.9623 35.4766 87.0208 36.4262C86.3846 37.0676 85.7148 37.6636 85.0151 38.2111C84.7479 38.3991 84.4915 38.6062 84.248 38.831Z" fill="#455A64"/>
<path d="M23.3905 159.175L16.4138 173.666C16.4138 173.666 1.73148 169.407 0.213379 171.938L23.7796 189.435L35.4696 167.366L23.3905 159.175Z" fill="#0046B3"/>
<g opacity="0.6">
<path d="M24.4921 177.568C24.6816 177.807 24.7866 178.119 24.7866 178.441C24.7866 178.764 24.6816 179.076 24.4921 179.315C24.2883 179.537 24.0175 179.66 23.7359 179.66C23.4543 179.66 23.1834 179.537 22.9796 179.315C22.777 179.063 22.6646 178.733 22.6646 178.391C22.6646 178.049 22.777 177.719 22.9796 177.468C23.2104 177.256 23.5042 177.156 23.7987 177.187C24.0932 177.219 24.3655 177.38 24.558 177.637" fill="white"/>
</g>
<g opacity="0.6">
<path d="M23.763 189.435L24.9414 187.211L1.70395 171.224C1.38206 171.188 1.05753 171.245 0.759858 171.39C0.462185 171.534 0.200816 171.761 -0.000488281 172.051L23.763 189.435Z" fill="white"/>
</g>
<path d="M16.0967 173.259C16.0309 173.397 16.5845 173.885 16.9407 174.687C17.2969 175.488 17.3024 176.296 17.4394 176.315C17.5764 176.334 17.8066 175.438 17.3682 174.436C16.9297 173.434 16.1351 173.121 16.0967 173.259Z" fill="#263238"/>
<path d="M12.9401 172.727C12.8469 172.84 13.236 173.416 13.3401 174.261C13.4443 175.106 13.2415 175.782 13.3401 175.858C13.4388 175.933 13.932 175.231 13.7896 174.173C13.647 173.115 13.0113 172.602 12.9401 172.727Z" fill="#263238"/>
<path d="M9.69566 175.206C9.78882 175.307 10.3039 174.743 10.3862 173.804C10.4684 172.865 10.0738 172.188 9.9642 172.27C9.85458 172.351 9.99161 172.971 9.91482 173.748C9.83812 174.524 9.58603 175.112 9.69566 175.206Z" fill="#263238"/>
<path d="M18.0088 170.159C18.0088 170.315 18.6281 170.497 19.2693 171.005C19.9106 171.512 20.2997 172.107 20.4203 172.032C20.5408 171.957 20.2942 171.136 19.5379 170.553C18.7816 169.971 18.0034 170.015 18.0088 170.159Z" fill="#263238"/>
<g opacity="0.3">
<path d="M22.0176 162.049L20.7681 164.629L32.6827 172.602L33.8885 170.334L22.0176 162.049Z" fill="black"/>
</g>
<path d="M19.4606 167.285C19.4606 167.341 19.8553 167.742 20.6718 168.105C21.1545 168.311 21.6567 168.452 22.168 168.525C22.4707 168.551 22.7746 168.555 23.0778 168.537C23.2628 168.545 23.4478 168.52 23.6259 168.462C23.753 168.42 23.8643 168.331 23.9417 168.208C24.0192 168.085 24.0585 167.937 24.0534 167.786C24.0446 167.651 24.0083 167.521 23.9473 167.406C23.8864 167.291 23.8026 167.193 23.7026 167.122C23.5481 167.018 23.3822 166.938 23.2094 166.884C22.9137 166.783 22.6112 166.709 22.3051 166.665C21.7877 166.598 21.2646 166.623 20.7541 166.74C19.8882 166.953 19.4332 167.322 19.4606 167.366C19.488 167.41 19.9813 167.21 20.8089 167.109C21.2872 167.054 21.7697 167.068 22.2448 167.153C22.5238 167.205 22.7987 167.283 23.0668 167.385C23.3628 167.479 23.582 167.629 23.5765 167.798C23.5765 167.867 23.5765 167.886 23.4724 167.936C23.3441 167.977 23.2111 167.996 23.0778 167.992C22.7931 168.011 22.5076 168.011 22.2229 167.992C21.7375 167.947 21.2569 167.85 20.787 167.704C20.3542 167.528 19.911 167.388 19.4606 167.285Z" fill="#263238"/>
<path d="M19.5157 167.56C19.5431 167.611 20.0309 167.291 20.5297 166.446C20.9899 165.652 21.2514 164.729 21.286 163.778C21.3168 163.552 21.2956 163.32 21.2244 163.106C21.1534 162.892 21.0348 162.703 20.8804 162.557C20.7719 162.484 20.6475 162.449 20.5221 162.456C20.3967 162.463 20.2756 162.511 20.1735 162.594C20.029 162.713 19.8999 162.854 19.7898 163.014C19.2472 163.772 18.9891 164.744 19.0718 165.719C19.165 166.759 19.5761 167.254 19.6199 167.216C19.5235 166.716 19.4559 166.21 19.4171 165.7C19.4177 165.164 19.5186 164.635 19.7131 164.147C19.8271 163.865 19.9746 163.601 20.1515 163.364C20.3433 163.095 20.5626 162.926 20.6447 163.02C20.7203 163.121 20.776 163.239 20.8082 163.366C20.8403 163.494 20.8481 163.628 20.8311 163.759C20.826 164.079 20.7948 164.397 20.738 164.711C20.6419 165.249 20.4775 165.768 20.2502 166.252C19.85 167.085 19.4609 167.498 19.5157 167.56Z" fill="#263238"/>
<path d="M44.7256 187.324L45.4436 203.844C45.4436 203.844 30.4707 208.948 30.7119 213L58.8873 212.956L58.7502 187.061L44.7256 187.324Z" fill="#0046B3"/>
<g opacity="0.6">
<path d="M54.1103 202.298C54.3819 202.387 54.615 202.588 54.7648 202.862C54.9145 203.136 54.9702 203.464 54.9213 203.782C54.8547 204.095 54.6846 204.368 54.4468 204.542C54.2089 204.715 53.9214 204.778 53.6444 204.715C53.3568 204.619 53.1105 204.404 52.9527 204.113C52.7949 203.821 52.7368 203.474 52.7894 203.137C52.8901 202.819 53.0951 202.558 53.3611 202.41C53.6269 202.261 53.933 202.237 54.2144 202.342" fill="white"/>
</g>
<g opacity="0.6">
<path d="M58.8878 212.937L58.9262 210.238L32.0387 210.577C32.0387 210.577 30.7124 211.654 30.7124 212.981L58.8878 212.937Z" fill="white"/>
</g>
<path d="M45.0011 203.669C45.0011 203.825 45.6972 203.888 46.3767 204.383C47.0563 204.878 47.4235 205.529 47.5496 205.467C47.6756 205.404 47.4618 204.496 46.6288 203.919C45.7958 203.343 44.9518 203.525 45.0011 203.669Z" fill="#263238"/>
<path d="M42.058 205.11C42.0251 205.26 42.606 205.517 43.0993 206.174C43.5925 206.832 43.7131 207.527 43.8501 207.52C43.9872 207.514 44.0639 206.625 43.461 205.824C42.8582 205.022 42.058 204.959 42.058 205.11Z" fill="#263238"/>
<path d="M40.4298 209.161C40.5558 209.199 40.7367 208.41 40.375 207.558C40.0132 206.707 39.3665 206.375 39.3117 206.506C39.2569 206.638 39.657 207.089 39.9474 207.796C40.2379 208.504 40.2927 209.149 40.4298 209.161Z" fill="#263238"/>
<path d="M45.188 199.887C45.2483 200.024 45.873 199.799 46.6513 199.849C47.4295 199.899 48.0324 200.169 48.1036 200.031C48.1749 199.893 47.583 199.348 46.6732 199.304C45.7634 199.26 45.1167 199.762 45.188 199.887Z" fill="#263238"/>
<g opacity="0.3">
<path d="M45.2153 199.004L45.3798 202.291L58.8618 201.891L58.8454 199.235L45.2153 199.004Z" fill="black"/>
</g>
<path d="M45.0942 196.549C45.5578 196.681 46.0439 196.671 46.5027 196.517C47.3093 196.336 48.0788 195.984 48.7716 195.478C48.9277 195.374 49.0683 195.244 49.1881 195.09C49.2785 194.978 49.3331 194.835 49.343 194.684C49.353 194.533 49.3178 194.382 49.243 194.257C49.1729 194.149 49.082 194.061 48.9775 194.001C48.8729 193.94 48.7575 193.908 48.6401 193.906C48.4545 193.908 48.2701 193.94 48.0921 194C47.7925 194.088 47.5007 194.207 47.2207 194.357C46.749 194.608 46.3145 194.942 45.9327 195.347C45.2915 196.048 45.0778 196.636 45.1216 196.668C45.1654 196.699 45.4943 196.223 46.152 195.641C46.5351 195.307 46.953 195.03 47.396 194.814C47.657 194.691 47.9265 194.592 48.2017 194.52C48.4977 194.426 48.7497 194.42 48.832 194.57C48.9142 194.72 48.8594 194.652 48.799 194.752C48.7086 194.859 48.6053 194.952 48.4921 195.027C48.2554 195.212 48.0083 195.38 47.7523 195.528C47.3214 195.786 46.8699 195.995 46.404 196.154C45.9597 196.249 45.5219 196.381 45.0942 196.549Z" fill="#263238"/>
<path d="M45.2793 196.768C45.537 196.306 45.6598 195.762 45.6301 195.215C45.6456 194.619 45.5734 194.024 45.4164 193.455C45.3225 193.117 45.1976 192.792 45.0437 192.484C44.966 192.274 44.8419 192.09 44.6834 191.951C44.5249 191.811 44.3374 191.721 44.1394 191.689C44.0145 191.695 43.8937 191.741 43.7908 191.821C43.6879 191.902 43.6073 192.015 43.5584 192.146C43.4863 192.334 43.4401 192.532 43.4214 192.735C43.3719 193.094 43.3719 193.459 43.4214 193.818C43.5065 194.419 43.7191 194.987 44.0407 195.472C44.5888 196.292 45.1752 196.474 45.1862 196.417C45.1971 196.361 44.7478 196.042 44.3203 195.253C44.0708 194.796 43.9118 194.284 43.8544 193.75C43.819 193.44 43.819 193.126 43.8544 192.816C43.8928 192.478 44.0024 192.19 44.1175 192.234C44.2326 192.278 44.4957 192.484 44.6162 192.754C44.9985 193.505 45.2201 194.348 45.263 195.215C45.3397 196.161 45.2026 196.749 45.2793 196.768Z" fill="#263238"/>
<path d="M85.5999 46.2458L84.0214 45.4818C84.5037 44.6051 80.7327 52.9966 75.6142 53.053C68.6101 53.1282 67.9086 45.1499 67.9086 45.1499L67.5414 45.2062L56.0323 58.8395L54.5142 97.0401L55.7637 101.943L80.4916 112.176L89.1182 92.5563L89.8799 80.4633L85.5999 46.2458Z" fill="#F5F5F5"/>
<path d="M84.8493 45.7947C84.8493 45.7947 98.8958 49.4458 101.187 56.2968C102.195 59.3215 102.519 108.111 102.519 108.111C102.519 108.111 104.267 112.577 104.163 121.789C104.053 130.618 98.9456 136.323 92.5657 137.977C92.5657 137.977 90.8893 124.106 84.1642 117.148C77.7959 110.561 77.2095 111.362 77.2095 111.362L78.7443 95.449L80.3389 81.5966C81.9335 71.7019 80.136 60.9685 83.0795 51.481L84.8493 45.7947Z" fill="#0046B3"/>
<path d="M55.1938 55.5203L45.6138 103.671L55.9117 100.998L59.2 72.1029L67.6509 45.1749C67.6509 45.1749 66.2315 45.3878 64.401 45.7134C62.1835 46.1069 60.1203 47.252 58.4787 49.0005C56.8372 50.749 55.6928 53.0203 55.1938 55.5203Z" fill="#0046B3"/>
<g opacity="0.3">
<path d="M102.421 116.403C102.425 116.696 102.364 116.984 102.244 117.243C102.124 117.501 101.949 117.721 101.736 117.881C101.305 118.195 100.818 118.396 100.31 118.47C97.937 118.945 95.4989 118.432 93.1855 117.593C90.5758 116.552 88.0351 115.296 85.5847 113.835C81.9508 111.782 80.8055 110.849 77.3638 108.374C80.9257 110.041 82.1039 110.254 85.8641 111.231C91.4707 112.702 97.3729 113.428 102.421 116.522" fill="black"/>
</g>
<path d="M81.8076 98.2106L75.5435 96.6702C75.5435 96.6702 68.3421 92.0802 66.7254 92.0863C65.273 92.0863 59.5239 95.067 58.3949 95.6559C58.2687 95.7202 58.1647 95.8297 58.099 95.969C58.0239 96.111 57.9742 96.2686 57.9529 96.4329C57.9315 96.5965 57.9388 96.7642 57.9746 96.9245C58.0103 97.0854 58.0736 97.2369 58.1608 97.3694C58.248 97.5019 58.3574 97.6135 58.4827 97.6973L58.5868 97.7663L58.5155 97.9354C58.4185 98.1524 58.3572 98.3877 58.3347 98.6305C58.3203 98.8144 58.3578 98.999 58.4417 99.1566C58.5257 99.3141 58.6516 99.4372 58.8012 99.5068C58.9507 99.5772 59.1159 99.5907 59.2726 99.5454C59.4293 99.5007 59.5692 99.3993 59.6719 99.2566L59.4198 99.6198C59.3151 99.7645 59.2502 99.9409 59.2335 100.127L59.2006 100.491C59.1812 100.688 59.2148 100.888 59.297 101.063C59.3792 101.239 59.5061 101.382 59.6609 101.474C59.8085 101.56 59.9746 101.596 60.1395 101.579C60.3046 101.56 60.4618 101.489 60.5927 101.373C61.3654 100.666 63.026 99.2756 64.0125 99.2756C65.0735 99.3243 66.1302 99.4581 67.1747 99.6766C67.3879 99.7198 67.585 99.8348 67.7411 100.007C67.8971 100.178 68.0052 100.399 68.0516 100.641C67.4762 100.578 63.163 102.206 61.6339 102.788C61.3982 102.873 61.1838 103.021 61.0092 103.22C60.8345 103.421 60.7047 103.665 60.631 103.935C60.5104 104.423 60.631 104.993 61.5572 104.924C63.4346 104.649 65.2919 104.218 67.1145 103.634C67.1145 103.634 68.934 103.396 69.926 104.511C71.3235 106.077 71.9812 106.684 73.4116 106.421C74.2815 106.259 75.1327 105.986 75.9491 105.607L78.2181 106.102L81.8076 98.2106Z" fill="#FFBE9D"/>
<path d="M68.6145 96.8893C68.1544 96.698 67.6861 96.533 67.2115 96.395C66.0573 96.0907 64.8565 96.1022 63.707 96.4288C62.5575 96.7548 61.4916 97.387 60.5965 98.2735C59.9114 98.9497 59.5771 99.4825 59.5552 99.4568C59.6197 99.325 59.6969 99.2005 59.7854 99.0876C60.0111 98.7637 60.2604 98.4621 60.5308 98.1856C61.4253 97.2626 62.5065 96.6073 63.6773 96.2794C64.8482 95.9514 66.072 95.9609 67.2389 96.3071C67.5901 96.4065 67.9331 96.5404 68.2637 96.7081C68.3862 96.7534 68.5038 96.8143 68.6145 96.8893Z" fill="#EB996E"/>
<path d="M68.1111 94.6416C67.6496 94.382 67.1618 94.1879 66.6588 94.0648C65.4307 93.8295 64.1693 93.9945 63.0197 94.5409C61.8751 95.1055 60.8007 95.8405 59.8245 96.727L58.9258 97.5154C58.8213 97.6209 58.7074 97.7136 58.5859 97.7913C58.6774 97.6723 58.7783 97.5635 58.8874 97.4654C59.0901 97.2653 59.3861 96.9772 59.7642 96.633C60.7303 95.71 61.8084 94.9527 62.9649 94.3847C64.1385 93.8228 65.4313 93.6699 66.6807 93.9465C67.0611 94.0378 67.4295 94.1852 67.7767 94.3847C67.9028 94.4537 67.985 94.5287 68.0453 94.5659C68.1056 94.6038 68.1166 94.6416 68.1111 94.6416Z" fill="#EB996E"/>
<path d="M92.6813 57.7933L95.8107 96.2503H96.6988L82.5091 96.5762L77.3794 108.355C77.3794 108.355 95.9807 118.695 103.928 115.871C113.354 112.489 110.663 100.478 110.591 96.2321C110.591 95.4862 105.292 59.7597 100.179 54.4054C100.19 54.3803 93.4323 54.8938 92.6813 57.7933Z" fill="#0046B3"/>
<path d="M92.2649 68.5272C92.2618 68.8754 92.2879 69.2236 92.3414 69.5665C92.4295 70.2866 92.5443 71.2326 92.676 72.3788C92.9937 74.8022 93.4216 78.0459 93.8931 81.6277C94.3639 85.2101 94.7972 88.5167 95.0873 90.8841C95.2297 92.0234 95.3507 92.9694 95.4441 93.6896C95.4693 94.0371 95.5245 94.3806 95.6079 94.716C95.6133 94.3685 95.5949 94.0209 95.5536 93.6767C95.5038 93.0066 95.4165 92.0424 95.2956 90.8523C95.0544 88.4728 94.6656 85.2162 94.1994 81.5776C93.7339 77.9397 93.2463 74.6893 92.901 72.3409C92.7257 71.2076 92.5826 70.2616 92.4731 69.5475C92.4264 69.202 92.3568 68.8612 92.2649 68.5272Z" fill="#263238"/>
<path d="M93.3388 51.9631C93.3388 51.9631 93.2232 52.0947 93.0647 52.364C92.8381 52.7529 92.6383 53.1611 92.4668 53.5851C92.202 54.2071 91.9853 54.8547 91.82 55.5202C91.6179 56.3403 91.4747 57.1781 91.3928 58.0251C91.2558 59.5512 91.2558 61.0893 91.3928 62.6154C91.4158 63.25 91.4985 63.8798 91.6393 64.4942C91.6669 63.8677 91.6538 63.2398 91.601 62.6154C91.5344 61.1033 91.5696 59.5876 91.7051 58.0815C91.7863 57.2578 91.918 56.4416 92.1001 55.6392C92.2479 54.9862 92.4309 54.3441 92.6475 53.7166C93.0479 52.6082 93.3824 51.9944 93.3388 51.9631Z" fill="#263238"/>
<path d="M103.949 115.846C103.904 115.836 103.857 115.836 103.812 115.846L103.411 115.965C102.895 116.095 102.372 116.183 101.844 116.228C99.9014 116.309 97.957 116.099 96.0623 115.602C94.8567 115.307 93.5247 114.975 92.1215 114.618C90.719 114.261 89.2661 113.585 87.7373 112.94C84.6845 111.625 81.3583 110.078 77.8721 108.406L77.4396 108.193L77.5162 108.418L82.6352 96.6323L82.5142 96.7203C84.8001 96.7203 86.8991 96.5512 88.7455 96.4883C90.5927 96.4261 92.2371 96.3632 93.5798 96.3761C94.9225 96.3882 95.9804 96.4511 96.7038 96.5384C97.4273 96.6263 97.7993 96.7013 97.7993 96.6763C97.7105 96.6432 97.6186 96.6175 97.5252 96.6012C97.3392 96.5573 97.0652 96.4883 96.7038 96.4383C95.665 96.2936 94.6201 96.2138 93.5744 96.2003C92.2256 96.1631 90.5981 96.2003 88.7348 96.2381C86.8715 96.2753 84.7779 96.4072 82.5142 96.4133H82.4323L82.394 96.4951C80.8538 100.021 79.1054 104.01 77.2475 108.268L77.1763 108.424L77.3187 108.493L77.7519 108.706C81.2266 110.385 84.5589 111.925 87.6172 113.221C89.1513 113.848 90.6149 114.474 92.0342 114.881C93.4535 115.288 94.774 115.545 95.9911 115.827C97.9049 116.318 99.87 116.499 101.827 116.366C102.554 116.318 103.27 116.142 103.949 115.846Z" fill="#263238"/>
<path d="M94.1719 96.3511C94.2102 96.3882 94.5286 95.9751 95.164 95.518C96.0015 94.9399 96.9346 94.5646 97.9045 94.4158C98.8859 94.2772 99.8765 94.2413 100.864 94.3096C101.277 94.3549 101.694 94.3549 102.108 94.3096C101.71 94.1643 101.297 94.0824 100.88 94.0655C99.8773 93.9208 98.863 93.9208 97.8601 94.0655C96.8428 94.215 95.8729 94.645 95.0323 95.3178C94.6756 95.5755 94.3801 95.9305 94.1719 96.3511Z" fill="#263238"/>
<g opacity="0.3">
<path d="M94.4136 96.301C96.4299 95.9535 98.4892 96.1225 100.442 96.7953C101.637 97.2152 102.843 97.8725 103.511 99.0815C103.73 99.4696 103.862 100.027 103.571 100.334C103.426 100.447 103.255 100.51 103.079 100.515C102.904 100.52 102.73 100.468 102.579 100.365C101.901 99.9741 101.267 99.4879 100.694 98.9185C99.7469 98.0564 98.6974 97.3538 97.5759 96.8332C96.4483 96.3166 95.2227 96.1421 94.0186 96.326" fill="black"/>
</g>
<g opacity="0.3">
<path d="M95.0376 95.474C95.4602 94.1217 97.0165 92.8565 98.0193 92.4684C100.304 91.5792 102.952 91.2472 104.958 92.7436C105.076 92.8085 105.179 92.9038 105.259 93.0228C105.338 93.1412 105.394 93.2798 105.418 93.4265C105.418 93.8397 105.029 94.0905 104.679 94.2028C103.237 94.6538 101.708 94.3786 100.217 94.2028C98.7266 94.0277 97.1313 94.0148 95.8322 94.8857" fill="black"/>
</g>
<g opacity="0.3">
<path d="M95.5111 93.7829C92.4192 86.3292 91.3505 77.9891 92.4414 69.8356L95.5111 93.7829Z" fill="black"/>
</g>
<path d="M92.5546 138.002C92.5546 138.002 87.48 141.847 77.4012 141.847C67.3224 141.847 65.0096 141.051 65.0096 141.051L55.5667 131.251L34.8503 172.708C34.8503 172.708 18.4087 161.06 18.3046 161.436C18.1072 161.661 33.6501 122.164 37.037 115.332C38.1733 113.098 39.4558 110.964 40.8733 108.951C42.5688 106.447 44.8508 104.545 47.4545 103.464C50.0583 102.383 52.8769 102.168 55.5831 102.845C58.505 103.542 61.3832 104.461 64.1985 105.594C71.7178 108.725 78.0917 110.855 83.5284 116.366C89.8363 122.734 93.6455 135.096 92.5546 138.002Z" fill="#0046B3"/>
<path d="M57.925 126.479C57.925 126.479 65.3785 132.372 65.1757 137.125C65.0113 141.083 60.4022 199.329 60.4022 199.329L42.0588 198.979L40.7983 160.835L57.925 126.479Z" fill="#0046B3"/>
<path d="M39.3222 163.759C39.3552 163.716 39.3829 163.667 39.4043 163.615L39.6235 163.189C39.8263 162.788 40.1004 162.231 40.4456 161.53L43.4161 155.387L53.1221 135.058L56.9584 126.918L56.816 126.999C58.1635 127.2 59.4563 127.734 60.6038 128.566C61.7512 129.399 62.7256 130.507 63.4584 131.815C64.0749 132.933 64.4955 134.177 64.697 135.478C64.863 136.601 64.9309 137.74 64.8997 138.879C64.8504 140.951 64.6805 142.636 64.6367 143.745C64.6093 144.315 64.5983 144.759 64.5983 145.053C64.5886 145.203 64.5886 145.354 64.5983 145.504C64.6248 145.356 64.6395 145.204 64.6422 145.053C64.6422 144.734 64.6915 144.302 64.7244 143.757C64.8011 142.617 64.9929 140.976 65.0696 138.879C65.1177 137.727 65.0608 136.573 64.8997 135.434C64.7023 134.101 64.2797 132.825 63.6557 131.677C62.9111 130.322 61.9149 129.171 60.7376 128.305C59.5604 127.44 58.2309 126.88 56.8434 126.667H56.7502L56.7064 126.767C55.4952 129.303 54.1908 132.053 52.8371 134.908L43.2078 155.28C41.9966 157.872 41.0156 159.983 40.3196 161.473L39.5468 163.164L39.355 163.609C39.3385 163.702 39.3166 163.753 39.3222 163.759Z" fill="#455A64"/>
<path d="M54.6528 118.557C55.5452 119.734 56.2124 121.112 56.6116 122.601C57.0109 124.09 57.1333 125.659 56.9711 127.206C57.132 126.774 57.2175 126.31 57.2232 125.84C57.3701 123.562 56.766 121.304 55.5297 119.509C55.294 119.13 54.9962 118.807 54.6528 118.557Z" fill="#455A64"/>
<path d="M58.5106 116.948C58.4613 116.948 58.6093 117.574 58.7188 118.507C58.861 119.757 58.8314 121.025 58.6312 122.265C58.4256 123.501 58.056 124.694 57.535 125.803C57.124 126.655 56.8007 127.137 56.839 127.168C57.1922 126.813 57.4873 126.389 57.7104 125.915C58.9097 123.689 59.3469 121.035 58.9381 118.463C58.8696 117.934 58.7251 117.423 58.5106 116.948Z" fill="#455A64"/>
<path d="M72.8084 90.195C72.8523 90.1571 72.2604 89.4248 71.5753 88.0968C71.1598 87.3226 70.7935 86.5145 70.4792 85.6801C70.1027 84.6557 69.8003 83.5981 69.5749 82.5175C69.3604 81.4316 69.223 80.328 69.1638 79.2171C69.1243 78.3089 69.1427 77.3981 69.2187 76.4927C69.3447 74.9402 69.5694 73.9881 69.5146 73.9881C69.433 74.1882 69.3705 74.3985 69.3283 74.6142C69.2609 74.8692 69.2078 75.1281 69.1694 75.3905C69.12 75.6975 69.0487 76.0484 69.0159 76.4427C68.9108 77.3582 68.8742 78.2819 68.9062 79.2049C68.9461 80.3348 69.0763 81.458 69.2954 82.5615C69.5258 83.6617 69.8413 84.7368 70.238 85.7741C70.5663 86.618 70.9568 87.4287 71.4054 88.1975C71.5751 88.4957 71.758 88.7845 71.9534 89.0617C72.089 89.2815 72.2373 89.4904 72.3973 89.6879C72.5132 89.8779 72.6515 90.0483 72.8084 90.195Z" fill="#263238"/>
<path d="M55.9618 52.9966C55.9618 52.9966 36.0729 92.0363 35.629 95.0359C35.3002 97.2653 35.9305 103.621 37.7116 104.43C42.6989 106.734 48.4644 104.06 53.7312 99.8956L54.5204 99.2695L55.9618 52.9966Z" fill="#0046B3"/>
<path d="M27.803 75.7976L60.1765 79.142C60.323 79.1569 60.4622 79.2218 60.5764 79.3273C60.6907 79.4334 60.7747 79.5761 60.8176 79.7371L68.0191 106.139C68.0523 106.266 68.1113 106.382 68.1913 106.478C68.2714 106.574 68.3701 106.646 68.4794 106.69L80.9146 110.561C81.0983 110.627 81.2522 110.774 81.3426 110.969C81.4336 111.164 81.4535 111.392 81.3992 111.603C81.3448 111.816 81.2201 111.994 81.0517 112.102C80.8832 112.21 80.685 112.239 80.4982 112.182L67.1203 108.944L37.0322 104.655C36.8983 104.636 36.7711 104.578 36.6641 104.484C36.5571 104.39 36.4741 104.265 36.4238 104.123L27.0467 76.9566C27.0006 76.822 26.9854 76.6759 27.0023 76.5326C27.0193 76.3892 27.0678 76.2533 27.1435 76.137C27.2192 76.0214 27.3195 75.9294 27.4348 75.8699C27.5502 75.8104 27.6769 75.7861 27.803 75.7976Z" fill="#E0E0E0"/>
<path d="M27.8035 75.7976C27.7079 75.7732 27.6086 75.7732 27.513 75.7976C27.3713 75.8442 27.2442 75.9362 27.147 76.0627C27.0498 76.1891 26.9866 76.3453 26.9649 76.5116C26.956 76.7571 27.0033 77.0012 27.102 77.2196C27.1842 77.4698 27.2773 77.7389 27.3759 78.027L28.0611 80.0562C29.1078 83.1126 30.6204 87.5396 32.5057 93.0634L35.6297 102.156L36.0571 103.408L36.2709 104.035C36.332 104.291 36.4722 104.513 36.6655 104.661C36.7632 104.732 36.8737 104.777 36.9888 104.793L37.2902 104.843L37.8931 104.924L39.1098 105.1L44.1793 105.832L67.0988 109.12L74.0481 110.786L77.6052 111.65L79.408 112.082L80.3067 112.301C80.4736 112.361 80.6489 112.377 80.8219 112.351C81.0056 112.313 81.174 112.21 81.3042 112.057C81.406 111.935 81.4795 111.785 81.5177 111.622C81.556 111.459 81.5576 111.287 81.5239 111.124C81.4894 110.959 81.4198 110.807 81.321 110.682C81.2223 110.556 81.0982 110.46 80.9589 110.404L68.5128 106.54C68.4113 106.497 68.3211 106.425 68.251 106.33C68.1809 106.236 68.1333 106.123 68.1127 106.002L67.8825 105.156L67.4221 103.477C67.1152 102.363 66.8138 101.257 66.5179 100.159C65.915 97.9665 65.3268 95.8169 64.7532 93.7085C63.6022 89.4877 62.5061 85.4563 61.4648 81.6155C61.3333 81.1395 61.2018 80.6635 61.0757 80.1942C61.0174 79.9447 60.9404 79.7019 60.8455 79.4679C60.7796 79.3462 60.6916 79.2428 60.5876 79.1643C60.4836 79.0852 60.366 79.0332 60.2426 79.0108L57.7271 78.7539L52.9426 78.2718L44.4204 77.4076L32.2207 76.1986L28.9325 75.8855L28.083 75.8165H27.798L28.083 75.8605L28.9269 75.9673L32.2153 76.3304L44.4039 77.6328L52.9207 78.5348L57.7052 79.0359L60.2043 79.2989C60.294 79.3145 60.3796 79.3523 60.4552 79.4098C60.5309 79.4673 60.5949 79.5423 60.6427 79.6302C60.7237 79.8459 60.7914 80.0677 60.8455 80.2943L61.2292 81.7224C62.2704 85.555 63.3666 89.5858 64.5175 93.8147C65.0875 95.9271 65.672 98.0794 66.2712 100.271C66.5672 101.369 66.8687 102.475 67.1756 103.59C67.3235 104.148 67.4769 104.705 67.6304 105.269L67.8606 106.114C67.894 106.284 67.9642 106.441 68.0648 106.571C68.1654 106.701 68.2931 106.8 68.4361 106.859L80.8655 110.73C80.9605 110.768 81.0447 110.833 81.1113 110.918C81.1786 111.003 81.2253 111.106 81.2491 111.217C81.272 111.328 81.2712 111.444 81.2452 111.555C81.22 111.665 81.1702 111.767 81.1013 111.851C81.0133 111.952 80.9007 112.022 80.7783 112.051C80.6435 112.069 80.5073 112.054 80.3779 112.007L79.4738 111.788L77.6764 111.35L74.1139 110.492L67.1481 108.807L44.2231 105.563L39.1536 104.849L37.9369 104.674L37.3341 104.592C37.1442 104.592 36.957 104.542 36.786 104.448C36.6372 104.341 36.5294 104.173 36.4846 103.978L36.2653 103.352L35.8379 102.1C34.6979 98.8246 33.6457 95.7871 32.6866 93.0256C30.763 87.5146 29.2284 83.0998 28.1652 80.0501C27.8966 79.2921 27.6609 78.622 27.4581 78.0337L27.1732 77.2318C27.0731 77.0276 27.0238 76.7956 27.0307 76.5617C27.0471 76.4048 27.1022 76.256 27.1895 76.133C27.2767 76.0099 27.3927 75.9179 27.5239 75.8666C27.6147 75.8327 27.7084 75.8098 27.8035 75.7976Z" fill="#263238"/>
<path d="M58.9639 79.0162C58.9731 79.1224 58.9915 79.2279 59.0187 79.33C59.0735 79.5673 59.1392 79.8621 59.2215 80.2124C59.4023 80.9826 59.6763 82.0915 60.0271 83.4439C60.7286 86.1622 61.7535 89.907 62.9044 94.0277C64.0552 98.1484 65.0966 101.836 65.8583 104.58L66.7517 107.792L67.0038 108.656C67.0301 108.761 67.0669 108.862 67.1134 108.957C67.1086 108.848 67.092 108.742 67.0641 108.637C67.0093 108.399 66.938 108.111 66.8613 107.754C66.6804 106.99 66.4009 105.876 66.0502 104.53C65.3487 101.805 64.3293 98.0665 63.1729 93.9398C62.0165 89.813 60.9807 86.1304 60.2189 83.3878L59.3256 80.1874L59.0735 79.3232C59.0523 79.215 59.0152 79.1109 58.9639 79.0162Z" fill="#263238"/>
<path d="M46.541 89.794C46.784 89.7825 47.026 89.8373 47.2464 89.955C47.4668 90.0733 47.6591 90.2498 47.8069 90.4702C47.9839 90.6454 48.1116 90.8759 48.174 91.1329C48.2364 91.3905 48.2308 91.663 48.1577 91.9173C48.0797 92.0938 47.9629 92.2439 47.8189 92.3541C47.6748 92.4636 47.5083 92.5292 47.3356 92.5434C46.9917 92.5617 46.6511 92.4589 46.3601 92.2493C46.1492 92.1303 45.9672 91.9538 45.8305 91.7354C45.6937 91.517 45.6064 91.2627 45.5763 90.9963C45.5715 90.6927 45.669 90.3992 45.8485 90.1754C46.028 89.9516 46.2759 89.815 46.541 89.794Z" fill="white"/>
<path d="M50.4819 77.9398C50.5897 77.6909 50.676 77.4306 50.7395 77.1628L51.3643 75.0085C51.9124 73.1929 52.6413 70.7005 53.5566 67.97C54.4718 65.2394 55.3596 62.8033 56.0283 61.0812L56.8339 58.9457C56.9443 58.6955 57.0325 58.4332 57.0969 58.1629C56.9531 58.3889 56.8318 58.6326 56.7352 58.8893C56.516 59.3653 56.2201 60.0604 55.8638 60.9309C55.1514 62.6656 54.2196 65.0953 53.3154 67.8192C52.4111 70.5436 51.6712 73.0671 51.1999 74.9023C50.9588 75.8226 50.7779 76.5678 50.6519 77.0877C50.5642 77.3623 50.5071 77.6483 50.4819 77.9398Z" fill="#263238"/>
</g>
<defs>
<clipPath id="clip0_20_26">
<rect width="111" height="213" fill="white"/>
</clipPath>
</defs>
</svg>
