<svg width="137" height="46" viewBox="0 0 137 46" fill="none" xmlns="http://www.w3.org/2000/svg">
<ellipse cx="26.0316" cy="23" rx="25.5316" ry="23" fill="#84A4FC"/>
<ellipse cx="51.9683" cy="23" rx="25.5316" ry="23" fill="#0046B3"/>
<path d="M12.575 30.7C12.625 30.7 12.65 30.75 12.65 30.85C12.65 30.95 12.625 31 12.575 31C12.1917 31 11.8833 30.9917 11.65 30.975L10.3 30.95L8.5 30.975C8.23333 30.9917 7.875 31 7.425 31C7.39167 31 7.375 30.95 7.375 30.85C7.375 30.75 7.39167 30.7 7.425 30.7C8.25833 30.7 8.675 30.5417 8.675 30.225C8.675 30.075 8.6 29.8917 8.45 29.675L5.375 25.5L4.125 26.475V28.975C4.125 29.4583 4.16667 29.825 4.25 30.075C4.33333 30.3083 4.48333 30.475 4.7 30.575C4.91667 30.6583 5.25 30.7 5.7 30.7C5.75 30.7 5.775 30.75 5.775 30.85C5.775 30.95 5.75 31 5.7 31C5.31667 31 5.00833 30.9917 4.775 30.975L3.425 30.95L2.075 30.975C1.84167 30.9917 1.53333 31 1.15 31C1.1 31 1.075 30.95 1.075 30.85C1.075 30.75 1.1 30.7 1.15 30.7C1.6 30.7 1.93333 30.6583 2.15 30.575C2.36667 30.475 2.51667 30.3083 2.6 30.075C2.68333 29.825 2.725 29.4583 2.725 28.975V16.05C2.725 15.45 2.66667 15.0167 2.55 14.75C2.43333 14.4833 2.225 14.35 1.925 14.35C1.675 14.35 1.29167 14.4667 0.775 14.7H0.725C0.675 14.7 0.633333 14.6583 0.6 14.575C0.566667 14.4917 0.583333 14.4417 0.65 14.425L3.775 12.9L3.9 12.875C3.95 12.875 4 12.9 4.05 12.95C4.1 12.9833 4.125 13.025 4.125 13.075V26.075L7.475 23.375C8.00833 22.9583 8.275 22.5917 8.275 22.275C8.275 21.8583 7.8 21.65 6.85 21.65C6.8 21.65 6.775 21.6 6.775 21.5C6.775 21.4 6.8 21.35 6.85 21.35C7.3 21.35 7.64167 21.3583 7.875 21.375L9.7 21.4L11.375 21.375C11.5917 21.3583 11.8917 21.35 12.275 21.35C12.325 21.35 12.35 21.4 12.35 21.5C12.35 21.6 12.325 21.65 12.275 21.65C11.6583 21.65 10.975 21.8 10.225 22.1C9.475 22.4 8.725 22.85 7.975 23.45L6.525 24.6L9.7 28.975C10.5333 30.125 11.4917 30.7 12.575 30.7ZM19.6553 21.125C20.0219 21.125 20.3719 21.225 20.7053 21.425C21.0386 21.625 21.2053 21.8667 21.2053 22.15C21.2053 22.3667 21.1303 22.55 20.9803 22.7C20.8469 22.85 20.6469 22.925 20.3803 22.925C20.2303 22.925 20.0969 22.9 19.9803 22.85C19.8803 22.7833 19.7553 22.6917 19.6053 22.575C19.4553 22.4417 19.3136 22.3417 19.1803 22.275C19.0469 22.2083 18.8886 22.175 18.7053 22.175C18.4886 22.175 18.2553 22.2667 18.0053 22.45C17.7719 22.6167 17.3969 23 16.8803 23.6V28.975C16.8803 29.475 16.9386 29.8417 17.0553 30.075C17.1886 30.3083 17.4219 30.475 17.7553 30.575C18.0886 30.6583 18.6053 30.7 19.3053 30.7C19.3719 30.7 19.4053 30.75 19.4053 30.85C19.4053 30.95 19.3719 31 19.3053 31C18.7719 31 18.3469 30.9917 18.0303 30.975L16.1803 30.95L14.8053 30.975C14.5886 30.9917 14.2886 31 13.9053 31C13.8553 31 13.8303 30.95 13.8303 30.85C13.8303 30.75 13.8553 30.7 13.9053 30.7C14.3553 30.7 14.6886 30.6583 14.9053 30.575C15.1219 30.475 15.2636 30.3083 15.3303 30.075C15.4136 29.8417 15.4553 29.475 15.4553 28.975V24.025C15.4553 23.4583 15.3886 23.05 15.2553 22.8C15.1219 22.55 14.8969 22.425 14.5803 22.425C14.3136 22.425 13.8636 22.55 13.2303 22.8H13.1803C13.1136 22.8 13.0636 22.7667 13.0303 22.7C13.0136 22.6167 13.0386 22.5583 13.1053 22.525L16.0053 21.15C16.0386 21.1333 16.0886 21.125 16.1553 21.125C16.3053 21.125 16.4636 21.3167 16.6303 21.7C16.7969 22.0833 16.8803 22.575 16.8803 23.175V23.2C17.5636 22.4 18.1053 21.8583 18.5053 21.575C18.9053 21.275 19.2886 21.125 19.6553 21.125ZM23.2117 31C23.1784 31 23.1617 30.95 23.1617 30.85C23.1617 30.75 23.1784 30.7 23.2117 30.7C23.6617 30.7 23.9951 30.6583 24.2117 30.575C24.4451 30.475 24.6034 30.3083 24.6867 30.075C24.7701 29.825 24.8117 29.4583 24.8117 28.975V24.3C24.8117 23.7 24.7451 23.2667 24.6117 23C24.4951 22.7333 24.2867 22.6 23.9867 22.6C23.6867 22.6 23.3117 22.7167 22.8617 22.95H22.8367C22.7701 22.95 22.7201 22.9083 22.6867 22.825C22.6534 22.7417 22.6617 22.6833 22.7117 22.65L25.9617 21.15L26.0617 21.125C26.0951 21.125 26.1367 21.15 26.1867 21.2C26.2367 21.2333 26.2617 21.275 26.2617 21.325C26.2617 21.4417 26.2534 21.775 26.2367 22.325C26.2201 22.875 26.2117 23.525 26.2117 24.275V28.975C26.2117 29.475 26.2534 29.8417 26.3367 30.075C26.4201 30.3083 26.5701 30.475 26.7867 30.575C27.0034 30.6583 27.3367 30.7 27.7867 30.7C27.8367 30.7 27.8617 30.75 27.8617 30.85C27.8617 30.95 27.8367 31 27.7867 31C27.4034 31 27.0951 30.9917 26.8617 30.975L25.5117 30.95L24.1617 30.975C23.9284 30.9917 23.6117 31 23.2117 31ZM25.3117 18.2C24.9617 18.2 24.6867 18.1083 24.4867 17.925C24.3034 17.7417 24.2117 17.4833 24.2117 17.15C24.2117 16.8167 24.3034 16.5583 24.4867 16.375C24.6867 16.1917 24.9617 16.1 25.3117 16.1C25.6451 16.1 25.9034 16.1917 26.0867 16.375C26.2701 16.5583 26.3617 16.8167 26.3617 17.15C26.3617 17.4833 26.2701 17.7417 26.0867 17.925C25.9034 18.1083 25.6451 18.2 25.3117 18.2ZM31.2227 22.875C31.2227 23.4583 31.4143 23.925 31.7977 24.275C32.181 24.6083 32.7477 24.9667 33.4977 25.35C34.081 25.65 34.531 25.9083 34.8477 26.125C35.181 26.3417 35.4643 26.625 35.6977 26.975C35.931 27.325 36.0477 27.75 36.0477 28.25C36.0477 29.1 35.731 29.8167 35.0977 30.4C34.4643 30.9833 33.606 31.275 32.5227 31.275C31.6393 31.275 30.8393 31.025 30.1227 30.525C30.0227 30.4583 29.9727 30.3583 29.9727 30.225L29.9227 28.275C29.9227 28.225 29.9643 28.2 30.0477 28.2C30.1477 28.1833 30.206 28.2 30.2227 28.25C30.5393 29.0833 30.9477 29.7167 31.4477 30.15C31.9643 30.5833 32.556 30.8 33.2227 30.8C33.7393 30.8 34.1393 30.6833 34.4227 30.45C34.7227 30.2 34.8727 29.8333 34.8727 29.35C34.8727 28.8833 34.7643 28.4917 34.5477 28.175C34.3477 27.8417 34.0977 27.5833 33.7977 27.4C33.4977 27.2 33.0893 26.9667 32.5727 26.7C32.0227 26.4333 31.581 26.1917 31.2477 25.975C30.931 25.7583 30.656 25.475 30.4227 25.125C30.206 24.775 30.0977 24.3417 30.0977 23.825C30.0977 22.925 30.431 22.2417 31.0977 21.775C31.781 21.2917 32.581 21.05 33.4977 21.05C34.1643 21.05 34.7727 21.175 35.3227 21.425C35.4227 21.4583 35.481 21.5 35.4977 21.55C35.531 21.5833 35.5477 21.6333 35.5477 21.7C35.5477 22.0333 35.5393 22.2917 35.5227 22.475L35.4977 23.525C35.4977 23.5583 35.4477 23.575 35.3477 23.575C35.2477 23.575 35.1977 23.5583 35.1977 23.525C35.1977 23.175 35.0643 22.85 34.7977 22.55C34.531 22.2333 34.1977 21.9833 33.7977 21.8C33.3977 21.6167 32.9977 21.525 32.5977 21.525C32.1643 21.525 31.8227 21.6417 31.5727 21.875C31.3393 22.0917 31.2227 22.425 31.2227 22.875ZM44.9449 29.7C45.0116 29.7 45.0616 29.7417 45.0949 29.825C45.1283 29.8917 45.1199 29.9417 45.0699 29.975C44.4533 30.4583 43.8949 30.8 43.3949 31C42.9116 31.2 42.4033 31.3 41.8699 31.3C41.1699 31.3 40.5949 31.1417 40.1449 30.825C39.6949 30.5083 39.4699 29.9833 39.4699 29.25V23.375C39.4699 22.9417 39.4366 22.6333 39.3699 22.45C39.3199 22.2667 39.2116 22.15 39.0449 22.1C38.8783 22.0333 38.5949 22 38.1949 22C38.1283 22 38.0949 21.95 38.0949 21.85C38.0949 21.7333 38.1283 21.675 38.1949 21.675C38.8616 21.6583 39.4033 21.4833 39.8199 21.15C40.2366 20.8 40.4783 20.3417 40.5449 19.775C40.5449 19.725 40.6116 19.7 40.7449 19.7C40.8616 19.7 40.9199 19.725 40.9199 19.775V21.625C41.7533 21.6083 42.9116 21.525 44.3949 21.375C44.4283 21.375 44.4616 21.4417 44.4949 21.575C44.5449 21.6917 44.5699 21.825 44.5699 21.975C44.5699 22.1083 44.5366 22.25 44.4699 22.4C44.4199 22.5333 44.3616 22.5917 44.2949 22.575C43.3783 22.3417 42.2533 22.2083 40.9199 22.175V28.4C40.9199 29.0833 41.0866 29.5917 41.4199 29.925C41.7699 30.2583 42.2616 30.425 42.8949 30.425C43.6616 30.425 44.3283 30.1917 44.8949 29.725L44.9449 29.7ZM46.9422 31C46.9089 31 46.8922 30.95 46.8922 30.85C46.8922 30.75 46.9089 30.7 46.9422 30.7C47.3922 30.7 47.7255 30.6583 47.9422 30.575C48.1755 30.475 48.3339 30.3083 48.4172 30.075C48.5005 29.825 48.5422 29.4583 48.5422 28.975V24.3C48.5422 23.7 48.4755 23.2667 48.3422 23C48.2255 22.7333 48.0172 22.6 47.7172 22.6C47.4172 22.6 47.0422 22.7167 46.5922 22.95H46.5672C46.5005 22.95 46.4505 22.9083 46.4172 22.825C46.3839 22.7417 46.3922 22.6833 46.4422 22.65L49.6922 21.15L49.7922 21.125C49.8255 21.125 49.8672 21.15 49.9172 21.2C49.9672 21.2333 49.9922 21.275 49.9922 21.325C49.9922 21.4417 49.9839 21.775 49.9672 22.325C49.9505 22.875 49.9422 23.525 49.9422 24.275V28.975C49.9422 29.475 49.9839 29.8417 50.0672 30.075C50.1505 30.3083 50.3005 30.475 50.5172 30.575C50.7339 30.6583 51.0672 30.7 51.5172 30.7C51.5672 30.7 51.5922 30.75 51.5922 30.85C51.5922 30.95 51.5672 31 51.5172 31C51.1339 31 50.8255 30.9917 50.5922 30.975L49.2422 30.95L47.8922 30.975C47.6589 30.9917 47.3422 31 46.9422 31ZM49.0422 18.2C48.6922 18.2 48.4172 18.1083 48.2172 17.925C48.0339 17.7417 47.9422 17.4833 47.9422 17.15C47.9422 16.8167 48.0339 16.5583 48.2172 16.375C48.4172 16.1917 48.6922 16.1 49.0422 16.1C49.3755 16.1 49.6339 16.1917 49.8172 16.375C50.0005 16.5583 50.0922 16.8167 50.0922 17.15C50.0922 17.4833 50.0005 17.7417 49.8172 17.925C49.6339 18.1083 49.3755 18.2 49.0422 18.2ZM64.8281 30.7C64.8781 30.7 64.9031 30.75 64.9031 30.85C64.9031 30.95 64.8781 31 64.8281 31C64.4448 31 64.1448 30.9917 63.9281 30.975L62.5781 30.95L61.2031 30.975C60.9865 30.9917 60.6865 31 60.3031 31C60.2531 31 60.2281 30.95 60.2281 30.85C60.2281 30.75 60.2531 30.7 60.3031 30.7C60.7531 30.7 61.0865 30.6583 61.3031 30.575C61.5198 30.475 61.6615 30.3083 61.7281 30.075C61.8115 29.8417 61.8531 29.475 61.8531 28.975V24.925C61.8531 23.9417 61.6615 23.2167 61.2781 22.75C60.9115 22.2833 60.3365 22.05 59.5531 22.05C59.0365 22.05 58.5115 22.1917 57.9781 22.475C57.4615 22.7417 56.9865 23.1167 56.5531 23.6V28.975C56.5531 29.475 56.5865 29.8417 56.6531 30.075C56.7365 30.3083 56.8865 30.475 57.1031 30.575C57.3198 30.6583 57.6531 30.7 58.1031 30.7C58.1531 30.7 58.1781 30.75 58.1781 30.85C58.1781 30.95 58.1531 31 58.1031 31C57.7198 31 57.4198 30.9917 57.2031 30.975L55.8531 30.95L54.4781 30.975C54.2615 30.9917 53.9615 31 53.5781 31C53.5281 31 53.5031 30.95 53.5031 30.85C53.5031 30.75 53.5281 30.7 53.5781 30.7C54.0281 30.7 54.3615 30.6583 54.5781 30.575C54.7948 30.475 54.9365 30.3083 55.0031 30.075C55.0865 29.8417 55.1281 29.475 55.1281 28.975V24.025C55.1281 23.4583 55.0615 23.05 54.9281 22.8C54.7948 22.55 54.5698 22.425 54.2531 22.425C53.9865 22.425 53.5365 22.55 52.9031 22.8H52.8531C52.7865 22.8 52.7365 22.7667 52.7031 22.7C52.6865 22.6167 52.7115 22.5583 52.7781 22.525L55.6781 21.15C55.7115 21.1333 55.7615 21.125 55.8281 21.125C55.9781 21.125 56.1365 21.3167 56.3031 21.7C56.4698 22.0833 56.5531 22.575 56.5531 23.175C57.1865 22.4417 57.8115 21.9 58.4281 21.55C59.0615 21.2 59.7115 21.025 60.3781 21.025C61.3115 21.025 62.0281 21.2833 62.5281 21.8C63.0281 22.3167 63.2781 23.075 63.2781 24.075V28.975C63.2781 29.475 63.3115 29.8417 63.3781 30.075C63.4615 30.3083 63.6115 30.475 63.8281 30.575C64.0448 30.6583 64.3781 30.7 64.8281 30.7ZM74.4682 29.6C74.5182 29.6 74.5598 29.6333 74.5932 29.7C74.6432 29.75 74.6515 29.8 74.6182 29.85C73.4848 30.8167 72.2682 31.3 70.9682 31.3C69.9848 31.3 69.1348 31.075 68.4182 30.625C67.7015 30.175 67.1598 29.5917 66.7932 28.875C66.4432 28.1417 66.2682 27.35 66.2682 26.5C66.2682 25.5 66.5015 24.5917 66.9682 23.775C67.4515 22.9583 68.1015 22.3167 68.9182 21.85C69.7348 21.3667 70.6432 21.125 71.6432 21.125C72.5432 21.125 73.2432 21.35 73.7432 21.8C74.2432 22.2333 74.4932 22.8333 74.4932 23.6C74.4932 23.8 74.4682 23.95 74.4182 24.05C74.3848 24.1333 74.3098 24.175 74.1932 24.175L68.0432 24.225C67.9598 24.675 67.9182 25.1083 67.9182 25.525C67.9182 26.975 68.2682 28.1583 68.9682 29.075C69.6682 29.975 70.6348 30.425 71.8682 30.425C72.8182 30.425 73.6765 30.15 74.4432 29.6H74.4682ZM70.7932 21.625C70.1098 21.625 69.5348 21.825 69.0682 22.225C68.6182 22.6083 68.3015 23.1583 68.1182 23.875L72.7682 23.775C72.7682 23.0917 72.5848 22.5667 72.2182 22.2C71.8682 21.8167 71.3932 21.625 70.7932 21.625ZM93.8076 30.7C93.8576 30.7 93.8826 30.75 93.8826 30.85C93.8826 30.95 93.8576 31 93.8076 31C93.4243 31 93.1243 30.9917 92.9076 30.975L91.5576 30.95L90.1826 30.975C89.966 30.9917 89.666 31 89.2826 31C89.2326 31 89.2076 30.95 89.2076 30.85C89.2076 30.75 89.2326 30.7 89.2826 30.7C89.7326 30.7 90.066 30.6583 90.2826 30.575C90.4993 30.475 90.641 30.3083 90.7076 30.075C90.791 29.8417 90.8326 29.475 90.8326 28.975V24.925C90.8326 23.9417 90.641 23.2167 90.2576 22.75C89.891 22.2833 89.316 22.05 88.5326 22.05C88.016 22.05 87.491 22.1917 86.9576 22.475C86.441 22.7417 85.966 23.1167 85.5326 23.6V28.975C85.5326 29.475 85.566 29.8417 85.6326 30.075C85.716 30.3083 85.866 30.475 86.0826 30.575C86.2993 30.6583 86.6326 30.7 87.0826 30.7C87.1326 30.7 87.1576 30.75 87.1576 30.85C87.1576 30.95 87.1326 31 87.0826 31C86.6993 31 86.3993 30.9917 86.1826 30.975L84.8326 30.95L83.4576 30.975C83.241 30.9917 82.941 31 82.5576 31C82.5076 31 82.4826 30.95 82.4826 30.85C82.4826 30.75 82.5076 30.7 82.5576 30.7C83.0076 30.7 83.341 30.6583 83.5576 30.575C83.7743 30.475 83.916 30.3083 83.9826 30.075C84.066 29.8417 84.1076 29.475 84.1076 28.975V24.025C84.1076 23.4583 84.041 23.05 83.9076 22.8C83.7743 22.55 83.5493 22.425 83.2326 22.425C82.966 22.425 82.516 22.55 81.8826 22.8H81.8326C81.766 22.8 81.716 22.7667 81.6826 22.7C81.666 22.6167 81.691 22.5583 81.7576 22.525L84.6576 21.15C84.691 21.1333 84.741 21.125 84.8076 21.125C84.9576 21.125 85.116 21.3167 85.2826 21.7C85.4493 22.0833 85.5326 22.575 85.5326 23.175C86.166 22.4417 86.791 21.9 87.4076 21.55C88.041 21.2 88.691 21.025 89.3576 21.025C90.291 21.025 91.0076 21.2833 91.5076 21.8C92.0076 22.3167 92.2576 23.075 92.2576 24.075V28.975C92.2576 29.475 92.291 29.8417 92.3576 30.075C92.441 30.3083 92.591 30.475 92.8076 30.575C93.0243 30.6583 93.3576 30.7 93.8076 30.7ZM105.123 21.35C105.173 21.35 105.198 21.4 105.198 21.5C105.198 21.6 105.173 21.65 105.123 21.65C104.706 21.65 104.348 21.8 104.048 22.1C103.748 22.4 103.464 22.8917 103.198 23.575L100.148 31.7C99.531 33.3167 98.9477 34.575 98.3977 35.475C97.8643 36.3917 97.306 37.0417 96.7227 37.425C96.156 37.825 95.4977 38.025 94.7477 38.025C94.381 38.025 94.081 37.9417 93.8477 37.775C93.5977 37.6083 93.4727 37.3667 93.4727 37.05C93.4727 36.8167 93.5477 36.6333 93.6977 36.5C93.8477 36.3667 94.031 36.3 94.2477 36.3C94.4643 36.3 94.6477 36.325 94.7977 36.375C94.9477 36.425 95.106 36.5083 95.2727 36.625C95.306 36.6417 95.3977 36.6917 95.5477 36.775C95.7143 36.8583 95.9143 36.9 96.1477 36.9C96.5477 36.9 96.9227 36.725 97.2727 36.375C97.6393 36.025 98.0227 35.4333 98.4227 34.6C98.8393 33.7833 99.3227 32.65 99.8727 31.2L96.0727 23.425C95.6893 22.6917 95.3977 22.2167 95.1977 22C94.9977 21.7667 94.7393 21.65 94.4227 21.65C94.3893 21.65 94.3727 21.6 94.3727 21.5C94.3727 21.4 94.3893 21.35 94.4227 21.35L95.2727 21.375C95.4727 21.3917 95.7477 21.4 96.0977 21.4L97.6977 21.375C97.931 21.3583 98.256 21.35 98.6727 21.35C98.706 21.35 98.7227 21.4 98.7227 21.5C98.7227 21.6 98.706 21.65 98.6727 21.65C97.706 21.65 97.2227 21.8417 97.2227 22.225C97.2227 22.325 97.2643 22.4583 97.3477 22.625L100.648 29.4L102.648 23.65C102.781 23.25 102.848 22.9333 102.848 22.7C102.848 22.3167 102.698 22.05 102.398 21.9C102.098 21.7333 101.606 21.65 100.923 21.65C100.889 21.65 100.873 21.6 100.873 21.5C100.873 21.4 100.889 21.35 100.923 21.35C101.373 21.35 101.714 21.3583 101.948 21.375L103.448 21.4L104.348 21.375C104.514 21.3583 104.773 21.35 105.123 21.35ZM115.294 29.65C115.361 29.65 115.402 29.6917 115.419 29.775C115.436 29.8417 115.411 29.8917 115.344 29.925L112.769 31.15C112.702 31.1833 112.636 31.2 112.569 31.2C112.352 31.2 112.161 31.0583 111.994 30.775C111.827 30.4917 111.719 30.1 111.669 29.6L110.119 30.425C109.602 30.6917 109.177 30.8833 108.844 31C108.511 31.1167 108.186 31.175 107.869 31.175C107.352 31.175 106.952 31.0417 106.669 30.775C106.402 30.4917 106.269 30.1417 106.269 29.725C106.269 29.275 106.436 28.9167 106.769 28.65C107.119 28.3667 107.736 28.075 108.619 27.775L111.644 26.7V24.625C111.644 23.525 111.502 22.7583 111.219 22.325C110.936 21.875 110.544 21.65 110.044 21.65C109.477 21.65 109.036 21.85 108.719 22.25C108.402 22.65 108.211 23.1333 108.144 23.7C108.077 24.3333 107.769 24.65 107.219 24.65C106.952 24.65 106.744 24.5833 106.594 24.45C106.444 24.3167 106.369 24.1333 106.369 23.9C106.369 23.5167 106.619 23.1083 107.119 22.675C107.619 22.2417 108.219 21.875 108.919 21.575C109.636 21.275 110.277 21.125 110.844 21.125C111.511 21.125 112.044 21.3583 112.444 21.825C112.844 22.275 113.044 22.9583 113.044 23.875V28.3C113.044 28.8833 113.119 29.3083 113.269 29.575C113.419 29.8417 113.669 29.975 114.019 29.975C114.336 29.975 114.744 29.8667 115.244 29.65H115.294ZM111.644 29.25V29.1V27L109.069 27.975C108.686 28.125 108.411 28.2917 108.244 28.475C108.094 28.6583 108.019 28.8917 108.019 29.175C108.019 29.525 108.119 29.8 108.319 30C108.519 30.1833 108.777 30.275 109.094 30.275C109.411 30.275 109.752 30.1917 110.119 30.025L111.644 29.25ZM121.443 30.275C122.443 30.425 123.234 30.5833 123.818 30.75C124.401 30.9 124.901 31.1667 125.318 31.55C125.734 31.95 125.943 32.5 125.943 33.2C125.943 33.95 125.659 34.7 125.093 35.45C124.526 36.2167 123.759 36.8417 122.793 37.325C121.843 37.8083 120.818 38.05 119.718 38.05C118.534 38.05 117.576 37.7667 116.843 37.2C116.126 36.6333 115.768 35.9083 115.768 35.025C115.768 33.7083 116.718 32.4167 118.618 31.15C117.484 30.8167 116.918 30.25 116.918 29.45C116.918 28.9833 117.076 28.5333 117.393 28.1C117.726 27.65 118.168 27.2417 118.718 26.875C118.068 26.6417 117.568 26.2833 117.218 25.8C116.868 25.3 116.693 24.7417 116.693 24.125C116.693 23.2583 117.059 22.55 117.793 22C118.526 21.45 119.451 21.175 120.568 21.175C121.668 21.175 122.518 21.4333 123.118 21.95C124.001 21.4167 124.893 21.15 125.793 21.15C125.843 21.15 125.876 21.2083 125.893 21.325C125.926 21.4417 125.943 21.5667 125.943 21.7C125.943 21.9 125.918 22.1 125.868 22.3C125.818 22.5 125.759 22.5833 125.693 22.55C125.643 22.5333 125.459 22.4667 125.143 22.35C124.843 22.2333 124.476 22.175 124.043 22.175C123.859 22.175 123.651 22.1917 123.418 22.225C123.851 22.725 124.068 23.3167 124.068 24C124.068 24.5667 123.909 25.0917 123.593 25.575C123.276 26.0417 122.834 26.4167 122.268 26.7C121.701 26.9833 121.043 27.125 120.293 27.125C119.809 27.125 119.384 27.075 119.018 26.975C118.734 27.175 118.509 27.4167 118.343 27.7C118.176 27.9667 118.093 28.2583 118.093 28.575C118.093 29.0917 118.326 29.4583 118.793 29.675C119.276 29.875 119.993 30.05 120.943 30.2L121.443 30.275ZM119.943 21.55C119.443 21.55 119.034 21.7167 118.718 22.05C118.418 22.3833 118.268 22.9 118.268 23.6C118.268 24.5667 118.518 25.3417 119.018 25.925C119.534 26.4917 120.134 26.775 120.818 26.775C121.318 26.775 121.726 26.5917 122.043 26.225C122.359 25.8417 122.518 25.2667 122.518 24.5C122.518 23.6333 122.259 22.925 121.743 22.375C121.243 21.825 120.643 21.55 119.943 21.55ZM120.718 37.3C121.534 37.3 122.234 37.15 122.818 36.85C123.418 36.55 123.868 36.15 124.168 35.65C124.484 35.1667 124.643 34.6417 124.643 34.075C124.643 33.425 124.434 32.925 124.018 32.575C123.601 32.225 123.109 31.9833 122.543 31.85C121.993 31.7167 121.209 31.5833 120.193 31.45C119.676 31.3833 119.318 31.325 119.118 31.275C118.518 31.6583 118.051 32.075 117.718 32.525C117.401 32.975 117.243 33.5417 117.243 34.225C117.243 35.1583 117.551 35.9 118.168 36.45C118.801 37.0167 119.651 37.3 120.718 37.3ZM136.29 29.65C136.357 29.65 136.398 29.6917 136.415 29.775C136.432 29.8417 136.407 29.8917 136.34 29.925L133.765 31.15C133.698 31.1833 133.632 31.2 133.565 31.2C133.348 31.2 133.157 31.0583 132.99 30.775C132.823 30.4917 132.715 30.1 132.665 29.6L131.115 30.425C130.598 30.6917 130.173 30.8833 129.84 31C129.507 31.1167 129.182 31.175 128.865 31.175C128.348 31.175 127.948 31.0417 127.665 30.775C127.398 30.4917 127.265 30.1417 127.265 29.725C127.265 29.275 127.432 28.9167 127.765 28.65C128.115 28.3667 128.732 28.075 129.615 27.775L132.64 26.7V24.625C132.64 23.525 132.498 22.7583 132.215 22.325C131.932 21.875 131.54 21.65 131.04 21.65C130.473 21.65 130.032 21.85 129.715 22.25C129.398 22.65 129.207 23.1333 129.14 23.7C129.073 24.3333 128.765 24.65 128.215 24.65C127.948 24.65 127.74 24.5833 127.59 24.45C127.44 24.3167 127.365 24.1333 127.365 23.9C127.365 23.5167 127.615 23.1083 128.115 22.675C128.615 22.2417 129.215 21.875 129.915 21.575C130.632 21.275 131.273 21.125 131.84 21.125C132.507 21.125 133.04 21.3583 133.44 21.825C133.84 22.275 134.04 22.9583 134.04 23.875V28.3C134.04 28.8833 134.115 29.3083 134.265 29.575C134.415 29.8417 134.665 29.975 135.015 29.975C135.332 29.975 135.74 29.8667 136.24 29.65H136.29ZM132.64 29.25V29.1V27L130.065 27.975C129.682 28.125 129.407 28.2917 129.24 28.475C129.09 28.6583 129.015 28.8917 129.015 29.175C129.015 29.525 129.115 29.8 129.315 30C129.515 30.1833 129.773 30.275 130.09 30.275C130.407 30.275 130.748 30.1917 131.115 30.025L132.64 29.25Z" fill="black"/>
</svg>
