<svg width="192" height="50" viewBox="0 0 192 50" fill="none" xmlns="http://www.w3.org/2000/svg">
<path d="M103.738 11.6172L101.531 11.207V9.54688H110.691V11.207L107.195 11.6172L94.7734 23.5508L106.688 36.2852L108.211 37.0273L110.75 37.3398V39H103.875L90.6523 24.293L103.738 11.6172ZM83.8555 9.54688H93.4258V11.207L90.4961 11.6562V36.8906L93.4258 37.3398V39H83.8555V37.3398L86.8828 36.8906V11.6562L83.8555 11.207V9.54688ZM138.088 15.2109V36.8906L141.057 37.3398V39H132.815V37.3398L135.842 36.8906V11.6562L132.815 11.207V9.54688H138.205L157.131 33.3359V11.6562L154.182 11.207V9.54688H162.366V11.207L159.416 11.6562V39H156.995L138.088 15.2109Z" fill="black"/>
<rect y="16" width="192" height="14" fill="white"/>
<path d="M79.2935 27.0166L80.4717 27.23V28H76.5752V27.23L77.7812 27.0166V14.2417L76.5752 14.0098V13.2583L79.2935 12.5718V27.0166ZM83.5146 19.7896L82.689 19.5947V18.8247H86.4092V19.5947L84.9619 19.8081L81.0376 22.8232L84.9341 26.7754L85.5371 27.0815L86.5391 27.23V28H83.9321L79.3677 23.0645L83.5146 19.7896ZM89.9843 20.2627L88.7968 20.0493V19.2793L91.4872 18.6021V20.9678C92.9098 19.3906 93.9797 18.6021 94.6972 18.6021C95.2848 18.6021 95.8259 18.8371 96.3207 19.3071L95.8383 20.8101H95.4023C95.4023 20.507 95.1703 20.2812 94.7065 20.1328C94.5766 20.0957 94.4467 20.0771 94.3168 20.0771C93.6612 20.0771 92.718 20.7358 91.4872 22.0532V27.0166L93.3241 27.23V28H88.7968V27.23L89.9843 27.0166V20.2627ZM100.833 27.0166L102.02 27.23V28H98.1239V27.23L99.3299 27.0166V20.2627L98.1239 20.0493V19.2793L100.833 18.6021V27.0166ZM99.2743 15.7725C99.1753 15.6611 99.0949 15.5374 99.033 15.4014C98.9712 15.2653 98.9403 15.1323 98.9403 15.0024C98.9403 14.8664 98.9712 14.7334 99.033 14.6035C99.0949 14.4674 99.1753 14.3438 99.2743 14.2324C99.5031 13.985 99.7103 13.8613 99.8958 13.8613C100.088 13.8613 100.248 13.8953 100.378 13.9634C100.514 14.0314 100.635 14.1211 100.74 14.2324C100.969 14.486 101.083 14.7118 101.083 14.9097C101.083 15.1014 101.049 15.2653 100.981 15.4014C100.919 15.5374 100.839 15.6611 100.74 15.7725C100.505 16.0137 100.289 16.1343 100.091 16.1343C99.8989 16.1343 99.7412 16.1003 99.6175 16.0322C99.4938 15.9642 99.3794 15.8776 99.2743 15.7725ZM105.345 25.291C105.345 26.5837 106.137 27.23 107.72 27.23C108.32 27.23 108.799 27.097 109.158 26.8311C109.486 26.5898 109.65 26.2868 109.65 25.9219C109.65 25.5384 109.554 25.2415 109.362 25.0312C108.985 24.6169 108.437 24.286 107.72 24.0386C107.009 23.7912 106.474 23.5562 106.115 23.3335C105.762 23.1047 105.484 22.8665 105.28 22.6191C104.927 22.1986 104.751 21.7471 104.751 21.2646C104.751 20.776 104.841 20.3771 105.02 20.0679C105.206 19.7586 105.447 19.4958 105.744 19.2793C106.375 18.8278 107.105 18.6021 107.933 18.6021C108.929 18.6021 109.798 18.8216 110.54 19.2607L110.327 21.0513H109.826C109.826 20.0802 109.18 19.5947 107.887 19.5947C107.324 19.5947 106.897 19.7061 106.607 19.9287C106.316 20.1452 106.171 20.4173 106.171 20.7451C106.171 21.4688 106.978 22.1243 108.592 22.7119C110.101 23.2686 110.952 23.9953 111.143 24.8921C111.193 25.1457 111.218 25.4487 111.218 25.8013C111.218 26.1476 111.103 26.4847 110.874 26.8125C110.652 27.1403 110.37 27.4062 110.03 27.6104C109.368 28.0124 108.604 28.2134 107.739 28.2134C106.891 28.2134 106.1 28.0495 105.364 27.7217C105.036 27.5794 104.751 27.4155 104.51 27.23L104.863 25.291H105.345ZM126.94 19.8081C125.994 19.8081 125.044 20.1359 124.092 20.7915V27.0166L125.27 27.23V28H121.374V27.23L122.58 27.0166V20.2627L121.374 20.0493V19.2793L123.934 18.6021V19.8081C125.184 19.0041 126.343 18.6021 127.413 18.6021C128.7 18.6021 129.538 19.137 129.927 20.207C130.057 20.5658 130.122 20.9863 130.122 21.4688V27.0166L131.3 27.23V28H127.413V27.23L128.61 27.0166V21.645C128.61 20.4204 128.053 19.8081 126.94 19.8081ZM134.347 30.2915C134.347 30.8976 134.616 31.2007 135.154 31.2007C135.475 31.2007 135.76 31.012 136.007 30.6348C136.069 30.5296 136.119 30.4245 136.156 30.3193L137.195 28.0186C135.129 23.1634 133.976 20.4266 133.734 19.8081L132.463 19.5947V18.8247H136.601V19.5947L135.451 19.8081L138.03 26.061L140.757 19.7617L139.514 19.5947V18.8247H143.16V19.5947L141.889 19.8081L137.232 30.4121C137.096 30.8574 136.883 31.2409 136.592 31.5625C136.035 32.1872 135.556 32.4995 135.154 32.4995C134.56 32.4995 133.963 32.3665 133.363 32.1006L133.864 30.2915H134.347ZM153.471 27.5176C152.568 27.9814 151.915 28.2134 151.513 28.2134C150.61 28.2134 150.159 27.8299 150.159 27.063V26.7754C150.072 26.9053 149.834 27.0939 149.444 27.3413C149.061 27.5887 148.761 27.7619 148.544 27.8608C148.031 28.0959 147.641 28.2134 147.375 28.2134C147.109 28.2134 146.89 28.201 146.717 28.1763C146.544 28.1577 146.364 28.1175 146.179 28.0557C145.993 27.9938 145.811 27.9072 145.631 27.7959C145.452 27.6846 145.291 27.5392 145.149 27.3599C144.833 26.964 144.676 26.4476 144.676 25.8105C144.676 24.9323 144.988 24.32 145.613 23.9736C146.009 23.7448 146.426 23.6025 146.865 23.5469C147.31 23.4912 147.716 23.4479 148.081 23.417C148.773 23.3551 149.466 23.318 150.159 23.3057V21.3574C150.159 20.8193 150.091 20.4606 149.955 20.2812C149.726 19.9658 149.37 19.8081 148.888 19.8081C147.811 19.8081 146.754 20.1576 145.715 20.8564L145.177 20.0493C146.624 19.0845 147.92 18.6021 149.064 18.6021C150.06 18.6021 150.765 18.8773 151.179 19.4277C151.501 19.8545 151.662 20.4606 151.662 21.2461V26.126C151.662 26.5837 151.748 26.8434 151.921 26.9053C151.983 26.9238 152.064 26.9331 152.163 26.9331C152.41 26.9331 152.79 26.8372 153.304 26.6455L153.471 27.5176ZM150.159 24.085C148.402 24.153 147.276 24.3293 146.782 24.6138C146.404 24.8302 146.216 25.1797 146.216 25.6621C146.216 26.361 146.485 26.7909 147.023 26.9517C147.171 26.995 147.351 27.0166 147.561 27.0166C147.777 27.0166 148.028 26.9733 148.312 26.8867C148.597 26.8001 148.86 26.695 149.101 26.5713C149.559 26.3486 149.911 26.1322 150.159 25.9219V24.085ZM163.456 20.1792C163.747 20.6493 163.892 21.2337 163.892 21.9326C163.892 22.916 163.398 23.7881 162.408 24.5488C161.975 24.8828 161.468 25.1611 160.887 25.3838L159.467 25.9219C158.787 26.1755 158.4 26.3517 158.307 26.4507C158.221 26.5435 158.178 26.6208 158.178 26.6826C158.178 26.7383 158.209 26.7939 158.27 26.8496C158.332 26.9053 158.434 26.9578 158.577 27.0073C158.917 27.1248 159.393 27.1836 160.005 27.1836C160.618 27.1836 161.19 27.2176 161.722 27.2856C162.253 27.3475 162.723 27.4681 163.132 27.6475C164.022 28.0495 164.468 28.736 164.468 29.707C164.468 30.3626 164.211 30.9718 163.698 31.5347C162.986 32.3078 161.978 32.8242 160.673 33.084C160.284 33.1582 159.854 33.1953 159.384 33.1953C158.914 33.1953 158.434 33.1458 157.946 33.0469C157.457 32.9479 157.03 32.7933 156.665 32.583C155.892 32.1439 155.506 31.4852 155.506 30.6069C155.506 29.9266 155.793 29.404 156.369 29.0391L156.972 28.6772C157.139 28.5907 157.324 28.5257 157.528 28.4824C157.738 28.4391 157.949 28.3896 158.159 28.334C157.491 28.2041 157.03 27.9382 156.777 27.5361C156.69 27.3939 156.647 27.2454 156.647 27.0908C156.647 26.93 156.678 26.7939 156.74 26.6826C156.801 26.5713 156.913 26.46 157.074 26.3486C157.234 26.2373 157.457 26.1136 157.742 25.9775L158.846 25.458C158.264 25.3467 157.72 25.0776 157.213 24.6509C156.514 24.0633 156.164 23.2345 156.164 22.1646C156.164 21.1379 156.616 20.2689 157.519 19.5576C158.317 18.9206 159.195 18.6021 160.154 18.6021C161.112 18.6021 161.941 18.8278 162.64 19.2793C163.085 18.9701 163.821 18.7505 164.848 18.6206L165.098 18.9082L164.662 20.1792H163.456ZM157.185 30.0688C157.148 30.242 157.129 30.4585 157.129 30.7183C157.129 30.978 157.225 31.2161 157.417 31.4326C157.609 31.6553 157.853 31.8254 158.15 31.9429C158.632 32.1346 159.176 32.2305 159.783 32.2305C160.395 32.2305 160.862 32.181 161.183 32.082C161.505 31.9831 161.786 31.8408 162.028 31.6553C162.572 31.2471 162.844 30.7152 162.844 30.0596C162.844 29.237 162.263 28.7731 161.1 28.668C160.76 28.637 160.404 28.6216 160.033 28.6216C158.969 28.6216 158.125 28.9339 157.5 29.5586C157.327 29.7318 157.222 29.9019 157.185 30.0688ZM157.89 20.8008C157.76 21.1038 157.695 21.4749 157.695 21.9141C157.695 22.347 157.76 22.7243 157.89 23.0459C158.02 23.3675 158.196 23.6396 158.419 23.8623C158.87 24.3138 159.452 24.5396 160.163 24.5396C161.091 24.5396 161.752 24.1499 162.148 23.3706C162.297 23.0799 162.371 22.7212 162.371 22.2944C162.371 21.8615 162.306 21.478 162.176 21.144C162.046 20.8101 161.87 20.5256 161.647 20.2905C161.183 19.8019 160.602 19.5576 159.903 19.5576C158.914 19.5576 158.243 19.972 157.89 20.8008ZM176.745 27.5176C175.842 27.9814 175.189 28.2134 174.787 28.2134C173.884 28.2134 173.433 27.8299 173.433 27.063V26.7754C173.346 26.9053 173.108 27.0939 172.719 27.3413C172.335 27.5887 172.035 27.7619 171.819 27.8608C171.305 28.0959 170.916 28.2134 170.65 28.2134C170.384 28.2134 170.164 28.201 169.991 28.1763C169.818 28.1577 169.638 28.1175 169.453 28.0557C169.267 27.9938 169.085 27.9072 168.906 27.7959C168.726 27.6846 168.565 27.5392 168.423 27.3599C168.108 26.964 167.95 26.4476 167.95 25.8105C167.95 24.9323 168.262 24.32 168.887 23.9736C169.283 23.7448 169.7 23.6025 170.139 23.5469C170.585 23.4912 170.99 23.4479 171.355 23.417C172.047 23.3551 172.74 23.318 173.433 23.3057V21.3574C173.433 20.8193 173.365 20.4606 173.229 20.2812C173 19.9658 172.644 19.8081 172.162 19.8081C171.086 19.8081 170.028 20.1576 168.989 20.8564L168.451 20.0493C169.898 19.0845 171.194 18.6021 172.338 18.6021C173.334 18.6021 174.039 18.8773 174.453 19.4277C174.775 19.8545 174.936 20.4606 174.936 21.2461V26.126C174.936 26.5837 175.022 26.8434 175.196 26.9053C175.257 26.9238 175.338 26.9331 175.437 26.9331C175.684 26.9331 176.065 26.8372 176.578 26.6455L176.745 27.5176ZM173.433 24.085C171.676 24.153 170.551 24.3293 170.056 24.6138C169.679 24.8302 169.49 25.1797 169.49 25.6621C169.49 26.361 169.759 26.7909 170.297 26.9517C170.446 26.995 170.625 27.0166 170.835 27.0166C171.052 27.0166 171.302 26.9733 171.587 26.8867C171.871 26.8001 172.134 26.695 172.375 26.5713C172.833 26.3486 173.185 26.1322 173.433 25.9219V24.085Z" fill="black"/>
</svg>
