<svg width="94" height="48" viewBox="0 0 94 48" fill="none" xmlns="http://www.w3.org/2000/svg">
<path d="M8.666 8.506H12.18L6.398 13.98L12.614 20H9.044L3.99 15.058V20H0.994V0.735999H3.99V12.888L8.666 8.506ZM16.9975 20H14.0155V8.506H16.9975V10.424H16.9275C16.9929 10.1907 17.1702 9.90133 17.4595 9.556C17.7582 9.20133 18.1689 8.884 18.6915 8.604C19.2142 8.31467 19.8442 8.17 20.5815 8.17C21.1135 8.17 21.5895 8.24467 22.0095 8.394C22.4295 8.54333 22.7282 8.69267 22.9055 8.842L21.7015 11.306C21.5802 11.1567 21.3515 11.012 21.0155 10.872C20.6889 10.7227 20.2829 10.648 19.7975 10.648C19.1909 10.648 18.6775 10.8253 18.2575 11.18C17.8469 11.5347 17.5342 11.9593 17.3195 12.454C17.1049 12.9487 16.9975 13.4107 16.9975 13.84V20ZM24.5788 20V8.506H27.5608V20H24.5788ZM26.1048 5.062C25.6008 5.062 25.1668 4.88 24.8028 4.516C24.4481 4.152 24.2708 3.718 24.2708 3.214C24.2708 2.71 24.4481 2.276 24.8028 1.912C25.1668 1.53867 25.6008 1.352 26.1048 1.352C26.4408 1.352 26.7488 1.44067 27.0288 1.618C27.3181 1.786 27.5468 2.01 27.7148 2.29C27.8921 2.56067 27.9808 2.86867 27.9808 3.214C27.9808 3.718 27.7988 4.152 27.4348 4.516C27.0708 4.88 26.6274 5.062 26.1048 5.062ZM35.618 8.17C36.262 8.17 36.8593 8.23067 37.41 8.352C37.9606 8.47333 38.432 8.618 38.824 8.786C39.216 8.954 39.4866 9.094 39.636 9.206L38.544 11.054C38.3573 10.8953 38.0213 10.7133 37.536 10.508C37.06 10.3027 36.5233 10.2 35.926 10.2C35.3286 10.2 34.8246 10.3073 34.414 10.522C34.0033 10.7367 33.798 11.0587 33.798 11.488C33.798 11.908 34.0126 12.244 34.442 12.496C34.8806 12.748 35.4733 12.958 36.22 13.126C36.836 13.266 37.424 13.462 37.984 13.714C38.544 13.9567 39.0013 14.3067 39.356 14.764C39.72 15.212 39.902 15.814 39.902 16.57C39.902 17.2887 39.748 17.8907 39.44 18.376C39.1413 18.852 38.74 19.2347 38.236 19.524C37.732 19.8133 37.172 20.0187 36.556 20.14C35.9493 20.2707 35.338 20.336 34.722 20.336C33.966 20.336 33.2893 20.2613 32.692 20.112C32.104 19.9627 31.614 19.79 31.222 19.594C30.83 19.3887 30.55 19.216 30.382 19.076L31.474 17.004C31.7166 17.2373 32.1133 17.4847 32.664 17.746C33.2146 17.998 33.8306 18.124 34.512 18.124C35.24 18.124 35.8233 17.984 36.262 17.704C36.7006 17.424 36.92 17.0507 36.92 16.584C36.92 16.2387 36.8126 15.9587 36.598 15.744C36.3926 15.5293 36.108 15.3567 35.744 15.226C35.38 15.0953 34.974 14.9787 34.526 14.876C34.106 14.7733 33.6813 14.6427 33.252 14.484C32.832 14.316 32.4446 14.1013 32.09 13.84C31.7353 13.5693 31.4506 13.2333 31.236 12.832C31.0213 12.4307 30.914 11.9593 30.914 11.418C30.914 10.7273 31.1333 10.1393 31.572 9.654C32.0106 9.16867 32.5893 8.8 33.308 8.548C34.0266 8.296 34.7966 8.17 35.618 8.17ZM41.3943 8.506H43.5503V3.788H46.5183V8.506H49.3603V11.026H46.5183V15.94C46.5183 16.556 46.6209 17.018 46.8263 17.326C47.0409 17.634 47.3443 17.788 47.7363 17.788C48.0629 17.788 48.3196 17.7273 48.5063 17.606C48.7023 17.4847 48.8189 17.4007 48.8563 17.354L49.9623 19.524C49.9063 19.58 49.7429 19.6733 49.4723 19.804C49.2016 19.9347 48.8516 20.056 48.4223 20.168C47.9929 20.28 47.5029 20.336 46.9523 20.336C45.9816 20.336 45.1696 20.0467 44.5163 19.468C43.8723 18.8893 43.5503 17.984 43.5503 16.752V11.026H41.3943V8.506ZM52.1413 20V8.506H55.1233V20H52.1413ZM53.6673 5.062C53.1633 5.062 52.7293 4.88 52.3653 4.516C52.0106 4.152 51.8333 3.718 51.8333 3.214C51.8333 2.71 52.0106 2.276 52.3653 1.912C52.7293 1.53867 53.1633 1.352 53.6673 1.352C54.0033 1.352 54.3113 1.44067 54.5913 1.618C54.8806 1.786 55.1093 2.01 55.2773 2.29C55.4546 2.56067 55.5433 2.86867 55.5433 3.214C55.5433 3.718 55.3613 4.152 54.9973 4.516C54.6333 4.88 54.1899 5.062 53.6673 5.062ZM65.4905 8.17C66.2651 8.17 67.0165 8.32867 67.7445 8.646C68.4725 8.96333 69.0698 9.472 69.5365 10.172C70.0125 10.8627 70.2505 11.7633 70.2505 12.874V20H67.2405V13.42C67.2405 12.384 66.9931 11.6233 66.4985 11.138C66.0131 10.6433 65.3831 10.396 64.6085 10.396C64.0951 10.396 63.6051 10.5407 63.1385 10.83C62.6718 11.1193 62.2891 11.5113 61.9905 12.006C61.7011 12.5007 61.5565 13.07 61.5565 13.714V20H58.5605V8.506H61.5565V10.438C61.6405 10.1207 61.8645 9.78933 62.2285 9.444C62.6018 9.08933 63.0731 8.79067 63.6425 8.548C64.2118 8.296 64.8278 8.17 65.4905 8.17ZM75.3034 14.96C75.322 15.5667 75.4667 16.1127 75.7374 16.598C76.008 17.0833 76.4047 17.466 76.9274 17.746C77.4594 18.0167 78.108 18.152 78.8734 18.152C79.536 18.152 80.1054 18.0633 80.5814 17.886C81.0667 17.6993 81.468 17.48 81.7854 17.228C82.1027 16.9667 82.336 16.724 82.4854 16.5L83.8154 18.306C83.526 18.698 83.162 19.048 82.7234 19.356C82.2847 19.664 81.7387 19.902 81.0854 20.07C80.4414 20.2473 79.6434 20.336 78.6914 20.336C77.4407 20.336 76.3534 20.0793 75.4294 19.566C74.5054 19.0527 73.7867 18.3293 73.2734 17.396C72.7694 16.4627 72.5174 15.3707 72.5174 14.12C72.5174 13 72.7507 11.992 73.2174 11.096C73.684 10.1907 74.3607 9.47667 75.2474 8.954C76.1434 8.43133 77.2167 8.17 78.4674 8.17C79.634 8.17 80.6467 8.40333 81.5054 8.87C82.364 9.33667 83.0267 10.0087 83.4934 10.886C83.9694 11.754 84.2074 12.804 84.2074 14.036C84.2074 14.1107 84.2027 14.2647 84.1934 14.498C84.1934 14.7313 84.184 14.8853 84.1654 14.96H75.3034ZM81.4074 12.776C81.398 12.4773 81.2954 12.1367 81.0994 11.754C80.9127 11.3713 80.6094 11.04 80.1894 10.76C79.7694 10.4707 79.2094 10.326 78.5094 10.326C77.7907 10.326 77.2074 10.466 76.7594 10.746C76.3114 11.0167 75.98 11.3433 75.7654 11.726C75.5507 12.0993 75.4247 12.4493 75.3874 12.776H81.4074ZM89.4272 20.336C88.8579 20.336 88.3679 20.1353 87.9572 19.734C87.5559 19.3233 87.3552 18.8287 87.3552 18.25C87.3552 17.6713 87.5559 17.1767 87.9572 16.766C88.3679 16.3553 88.8579 16.15 89.4272 16.15C90.0152 16.15 90.5099 16.3553 90.9112 16.766C91.3219 17.1767 91.5272 17.6713 91.5272 18.25C91.5272 18.8287 91.3219 19.3233 90.9112 19.734C90.5099 20.1353 90.0152 20.336 89.4272 20.336Z" fill="black"/>
<path d="M13.72 32.017C14.644 32.017 15.379 32.206 15.925 32.584C16.485 32.948 16.884 33.452 17.122 34.096C17.374 34.726 17.5 35.426 17.5 36.196V42.37C17.5 42.538 17.437 42.685 17.311 42.811C17.185 42.937 17.038 43 16.87 43C16.674 43 16.52 42.937 16.408 42.811C16.296 42.685 16.24 42.538 16.24 42.37V36.259C16.24 35.699 16.149 35.188 15.967 34.726C15.785 34.264 15.484 33.893 15.064 33.613C14.658 33.333 14.119 33.193 13.447 33.193C12.845 33.193 12.271 33.333 11.725 33.613C11.193 33.893 10.759 34.264 10.423 34.726C10.087 35.188 9.919 35.699 9.919 36.259V42.37C9.919 42.538 9.856 42.685 9.73 42.811C9.604 42.937 9.457 43 9.289 43C9.093 43 8.939 42.937 8.827 42.811C8.715 42.685 8.659 42.538 8.659 42.37V32.962C8.659 32.794 8.715 32.647 8.827 32.521C8.953 32.395 9.107 32.332 9.289 32.332C9.471 32.332 9.618 32.395 9.73 32.521C9.856 32.647 9.919 32.794 9.919 32.962V34.726L9.436 35.482C9.464 35.034 9.604 34.607 9.856 34.201C10.122 33.781 10.458 33.41 10.864 33.088C11.27 32.752 11.718 32.493 12.208 32.311C12.712 32.115 13.216 32.017 13.72 32.017ZM30.1681 32.08C30.3501 32.08 30.4971 32.143 30.6091 32.269C30.7351 32.395 30.7981 32.542 30.7981 32.71V41.971C30.7981 43.105 30.5741 44.057 30.1261 44.827C29.6781 45.611 29.0761 46.199 28.3201 46.591C27.5641 46.997 26.7031 47.2 25.7371 47.2C25.1351 47.2 24.5751 47.13 24.0571 46.99C23.5531 46.864 23.1401 46.696 22.8181 46.486C22.6501 46.388 22.5241 46.269 22.4401 46.129C22.3561 45.989 22.3491 45.842 22.4191 45.688C22.4891 45.492 22.5941 45.359 22.7341 45.289C22.8881 45.233 23.0421 45.24 23.1961 45.31C23.4341 45.436 23.7771 45.59 24.2251 45.772C24.6731 45.954 25.1841 46.045 25.7581 46.045C26.5281 46.045 27.1931 45.884 27.7531 45.562C28.3271 45.24 28.7681 44.771 29.0761 44.155C29.3841 43.553 29.5381 42.832 29.5381 41.992V40.48L29.6851 40.984C29.4751 41.418 29.1741 41.803 28.7821 42.139C28.4041 42.475 27.9631 42.741 27.4591 42.937C26.9691 43.119 26.4441 43.21 25.8841 43.21C25.0441 43.21 24.3441 43.042 23.7841 42.706C23.2381 42.356 22.8321 41.88 22.5661 41.278C22.3001 40.676 22.1671 39.969 22.1671 39.157V32.71C22.1671 32.542 22.2231 32.395 22.3351 32.269C22.4471 32.143 22.6011 32.08 22.7971 32.08C22.9791 32.08 23.1261 32.143 23.2381 32.269C23.3641 32.395 23.4271 32.542 23.4271 32.71V38.968C23.4271 39.948 23.6371 40.704 24.0571 41.236C24.4911 41.768 25.1911 42.034 26.1571 42.034C26.7591 42.034 27.3121 41.894 27.8161 41.614C28.3201 41.32 28.7331 40.942 29.0551 40.48C29.3771 40.004 29.5381 39.5 29.5381 38.968V32.71C29.5381 32.542 29.5941 32.395 29.7061 32.269C29.8321 32.143 29.9861 32.08 30.1681 32.08ZM44.3716 32.269C44.5536 32.269 44.7006 32.332 44.8126 32.458C44.9386 32.584 45.0016 32.738 45.0016 32.92V42.37C45.0016 42.538 44.9386 42.685 44.8126 42.811C44.6866 42.937 44.5396 43 44.3716 43C44.1896 43 44.0356 42.937 43.9096 42.811C43.7976 42.685 43.7416 42.538 43.7416 42.37V39.871L44.0986 39.703C44.0986 40.095 43.9866 40.494 43.7626 40.9C43.5526 41.306 43.2586 41.684 42.8806 42.034C42.5026 42.384 42.0546 42.671 41.5366 42.895C41.0326 43.105 40.4866 43.21 39.8986 43.21C38.9466 43.21 38.0926 42.965 37.3366 42.475C36.5946 41.985 36.0066 41.313 35.5726 40.459C35.1526 39.605 34.9426 38.646 34.9426 37.582C34.9426 36.49 35.1596 35.531 35.5936 34.705C36.0276 33.865 36.6156 33.207 37.3576 32.731C38.0996 32.255 38.9396 32.017 39.8776 32.017C40.4796 32.017 41.0396 32.122 41.5576 32.332C42.0896 32.542 42.5516 32.829 42.9436 33.193C43.3356 33.557 43.6366 33.977 43.8466 34.453C44.0706 34.915 44.1826 35.398 44.1826 35.902L43.7416 35.587V32.92C43.7416 32.738 43.7976 32.584 43.9096 32.458C44.0356 32.332 44.1896 32.269 44.3716 32.269ZM40.0036 42.034C40.7456 42.034 41.4036 41.845 41.9776 41.467C42.5516 41.075 42.9996 40.543 43.3216 39.871C43.6576 39.185 43.8256 38.422 43.8256 37.582C43.8256 36.756 43.6576 36.014 43.3216 35.356C42.9996 34.698 42.5516 34.173 41.9776 33.781C41.4036 33.389 40.7456 33.193 40.0036 33.193C39.2756 33.193 38.6176 33.382 38.0296 33.76C37.4556 34.138 37.0006 34.656 36.6646 35.314C36.3426 35.972 36.1816 36.728 36.1816 37.582C36.1816 38.422 36.3426 39.185 36.6646 39.871C37.0006 40.543 37.4556 41.075 38.0296 41.467C38.6036 41.845 39.2616 42.034 40.0036 42.034ZM54.251 32.017C54.881 32.017 55.462 32.129 55.994 32.353C56.526 32.563 56.988 32.843 57.38 33.193C57.786 33.529 58.101 33.893 58.325 34.285C58.549 34.663 58.661 35.027 58.661 35.377L58.304 34.873V32.92C58.304 32.738 58.36 32.584 58.472 32.458C58.598 32.332 58.752 32.269 58.934 32.269C59.13 32.269 59.284 32.332 59.396 32.458C59.508 32.584 59.564 32.738 59.564 32.92V42.013C59.564 43.133 59.333 44.078 58.871 44.848C58.409 45.618 57.779 46.199 56.981 46.591C56.197 46.997 55.301 47.2 54.293 47.2C53.803 47.2 53.285 47.137 52.739 47.011C52.207 46.885 51.745 46.724 51.353 46.528C50.975 46.332 50.765 46.129 50.723 45.919C50.611 45.793 50.555 45.667 50.555 45.541C50.569 45.429 50.632 45.331 50.744 45.247C50.884 45.149 51.031 45.135 51.185 45.205C51.339 45.289 51.57 45.394 51.878 45.52C52.018 45.562 52.207 45.625 52.445 45.709C52.683 45.793 52.963 45.863 53.285 45.919C53.621 45.989 53.971 46.024 54.335 46.024C55.595 46.024 56.568 45.66 57.254 44.932C57.954 44.218 58.304 43.273 58.304 42.097V40.081L58.535 40.144C58.409 40.648 58.199 41.089 57.905 41.467C57.625 41.845 57.289 42.167 56.897 42.433C56.505 42.685 56.078 42.874 55.616 43C55.168 43.14 54.72 43.21 54.272 43.21C53.306 43.21 52.438 42.965 51.668 42.475C50.898 41.985 50.282 41.32 49.82 40.48C49.372 39.64 49.148 38.681 49.148 37.603C49.148 36.539 49.372 35.587 49.82 34.747C50.282 33.893 50.891 33.228 51.647 32.752C52.417 32.262 53.285 32.017 54.251 32.017ZM54.398 33.193C53.628 33.193 52.935 33.389 52.319 33.781C51.717 34.159 51.241 34.684 50.891 35.356C50.555 36.014 50.387 36.763 50.387 37.603C50.387 38.443 50.555 39.199 50.891 39.871C51.241 40.543 51.717 41.075 52.319 41.467C52.935 41.845 53.628 42.034 54.398 42.034C55.168 42.034 55.854 41.845 56.456 41.467C57.058 41.089 57.534 40.571 57.884 39.913C58.234 39.241 58.409 38.471 58.409 37.603C58.409 36.735 58.234 35.972 57.884 35.314C57.534 34.642 57.058 34.124 56.456 33.76C55.854 33.382 55.168 33.193 54.398 33.193ZM73.0489 32.269C73.2309 32.269 73.3779 32.332 73.4899 32.458C73.6159 32.584 73.6789 32.738 73.6789 32.92V42.37C73.6789 42.538 73.6159 42.685 73.4899 42.811C73.3639 42.937 73.2169 43 73.0489 43C72.8669 43 72.7129 42.937 72.5869 42.811C72.4749 42.685 72.4189 42.538 72.4189 42.37V39.871L72.7759 39.703C72.7759 40.095 72.6639 40.494 72.4399 40.9C72.2299 41.306 71.9359 41.684 71.5579 42.034C71.1799 42.384 70.7319 42.671 70.2139 42.895C69.7099 43.105 69.1639 43.21 68.5759 43.21C67.6239 43.21 66.7699 42.965 66.0139 42.475C65.2719 41.985 64.6839 41.313 64.2499 40.459C63.8299 39.605 63.6199 38.646 63.6199 37.582C63.6199 36.49 63.8369 35.531 64.2709 34.705C64.7049 33.865 65.2929 33.207 66.0349 32.731C66.7769 32.255 67.6169 32.017 68.5549 32.017C69.1569 32.017 69.7169 32.122 70.2349 32.332C70.7669 32.542 71.2289 32.829 71.6209 33.193C72.0129 33.557 72.3139 33.977 72.5239 34.453C72.7479 34.915 72.8599 35.398 72.8599 35.902L72.4189 35.587V32.92C72.4189 32.738 72.4749 32.584 72.5869 32.458C72.7129 32.332 72.8669 32.269 73.0489 32.269ZM68.6809 42.034C69.4229 42.034 70.0809 41.845 70.6549 41.467C71.2289 41.075 71.6769 40.543 71.9989 39.871C72.3349 39.185 72.5029 38.422 72.5029 37.582C72.5029 36.756 72.3349 36.014 71.9989 35.356C71.6769 34.698 71.2289 34.173 70.6549 33.781C70.0809 33.389 69.4229 33.193 68.6809 33.193C67.9529 33.193 67.2949 33.382 66.7069 33.76C66.1329 34.138 65.6779 34.656 65.3419 35.314C65.0199 35.972 64.8589 36.728 64.8589 37.582C64.8589 38.422 65.0199 39.185 65.3419 39.871C65.6779 40.543 66.1329 41.075 66.7069 41.467C67.2809 41.845 67.9389 42.034 68.6809 42.034Z" fill="black"/>
</svg>
