<svg width="127" height="86" viewBox="0 0 127 86" fill="none" xmlns="http://www.w3.org/2000/svg">
<rect width="3.69903" height="3.225" fill="#84A4FC" fill-opacity="0.4"/>
<rect y="19.35" width="3.69903" height="3.225" fill="#84A4FC" fill-opacity="0.4"/>
<rect y="35.475" width="3.69903" height="3.225" fill="#84A4FC" fill-opacity="0.4"/>
<rect y="51.6" width="3.69903" height="3.225" fill="#84A4FC" fill-opacity="0.4"/>
<rect y="66.65" width="3.69903" height="3.225" fill="#84A4FC" fill-opacity="0.4"/>
<rect y="82.775" width="3.69903" height="3.225" fill="#84A4FC" fill-opacity="0.4"/>
<rect x="24.6602" width="3.69903" height="3.225" fill="#84A4FC" fill-opacity="0.4"/>
<rect x="24.6602" y="19.35" width="3.69903" height="3.225" fill="#84A4FC" fill-opacity="0.4"/>
<rect x="24.6602" y="35.475" width="3.69903" height="3.225" fill="#84A4FC" fill-opacity="0.4"/>
<rect x="24.6602" y="51.6" width="3.69903" height="3.225" fill="#84A4FC" fill-opacity="0.4"/>
<rect x="24.6602" y="66.65" width="3.69903" height="3.225" fill="#84A4FC" fill-opacity="0.4"/>
<rect x="24.6602" y="82.775" width="3.69903" height="3.225" fill="#84A4FC" fill-opacity="0.4"/>
<rect x="49.3203" width="3.69903" height="3.225" fill="#84A4FC" fill-opacity="0.4"/>
<rect x="49.3203" y="19.35" width="3.69903" height="3.225" fill="#84A4FC" fill-opacity="0.4"/>
<rect x="49.3203" y="35.475" width="3.69903" height="3.225" fill="#84A4FC" fill-opacity="0.4"/>
<rect x="49.3203" y="51.6" width="3.69903" height="3.225" fill="#84A4FC" fill-opacity="0.4"/>
<rect x="49.3203" y="66.65" width="3.69903" height="3.225" fill="#84A4FC" fill-opacity="0.4"/>
<rect x="49.3203" y="82.775" width="3.69903" height="3.225" fill="#84A4FC" fill-opacity="0.4"/>
<rect x="73.9805" width="3.69903" height="3.225" fill="#84A4FC" fill-opacity="0.4"/>
<rect x="73.9805" y="19.35" width="3.69903" height="3.225" fill="#84A4FC" fill-opacity="0.4"/>
<rect x="73.9805" y="35.475" width="3.69903" height="3.225" fill="#84A4FC" fill-opacity="0.4"/>
<rect x="73.9805" y="51.6" width="3.69903" height="3.225" fill="#84A4FC" fill-opacity="0.4"/>
<rect x="73.9805" y="66.65" width="3.69903" height="3.225" fill="#84A4FC" fill-opacity="0.4"/>
<rect x="73.9805" y="82.775" width="3.69903" height="3.225" fill="#84A4FC" fill-opacity="0.4"/>
<rect x="98.6409" width="3.69903" height="3.225" fill="#84A4FC" fill-opacity="0.4"/>
<rect x="98.6409" y="19.35" width="3.69903" height="3.225" fill="#84A4FC" fill-opacity="0.4"/>
<rect x="98.6409" y="35.475" width="3.69903" height="3.225" fill="#84A4FC" fill-opacity="0.4"/>
<rect x="98.6409" y="51.6" width="3.69903" height="3.225" fill="#84A4FC" fill-opacity="0.4"/>
<rect x="98.6409" y="66.65" width="3.69903" height="3.225" fill="#84A4FC" fill-opacity="0.4"/>
<rect x="98.6409" y="82.775" width="3.69903" height="3.225" fill="#84A4FC" fill-opacity="0.4"/>
<rect x="123.301" width="3.69903" height="3.225" fill="#84A4FC" fill-opacity="0.4"/>
<rect x="123.301" y="19.35" width="3.69903" height="3.225" fill="#84A4FC" fill-opacity="0.4"/>
<rect x="123.301" y="35.475" width="3.69903" height="3.225" fill="#84A4FC" fill-opacity="0.4"/>
<rect x="123.301" y="51.6" width="3.69903" height="3.225" fill="#84A4FC" fill-opacity="0.4"/>
<rect x="123.301" y="66.65" width="3.69903" height="3.225" fill="#84A4FC" fill-opacity="0.4"/>
<rect x="123.301" y="82.775" width="3.69903" height="3.225" fill="#84A4FC" fill-opacity="0.4"/>
</svg>
